<svg width="578" height="600" viewBox="0 0 578 600" fill="none" xmlns="http://www.w3.org/2000/svg">
<path fill-rule="evenodd" clip-rule="evenodd" d="M278.004 84.383C278.004 80.5205 275.641 77.0518 272.041 75.6455C268.46 74.2393 264.373 75.1768 261.748 78.008C261.748 78.008 119.341 231.814 56.5288 299.652C48.935 307.846 46.9288 319.771 51.3913 330.008C55.8725 340.264 65.9975 346.883 77.1725 346.883C144.823 346.883 268.648 346.883 268.648 346.883C271.123 346.883 273.504 345.889 275.266 344.127C277.029 342.383 278.023 339.983 278.023 337.508L278.004 84.383Z" fill="#F4D160"/>
<path fill-rule="evenodd" clip-rule="evenodd" d="M268.647 346.883H95.9038C84.7288 346.883 74.6038 340.264 70.1413 330.008C65.66 319.771 67.6663 307.846 75.2788 299.652L277.479 81.2705C276.579 78.7393 274.629 76.658 272.041 75.6455C268.46 74.2393 264.372 75.1768 261.747 78.008C261.747 78.008 119.341 231.814 56.5288 299.652C48.935 307.846 46.9288 319.771 51.3913 330.008C55.8725 340.264 65.9975 346.883 77.1725 346.883H268.647Z" fill="#D3A511"/>
<path fill-rule="evenodd" clip-rule="evenodd" d="M312.594 133.845C309.875 131.258 305.881 130.526 302.431 132.008C298.981 133.489 296.75 136.883 296.75 140.633L296.769 337.508C296.769 342.683 300.95 346.883 306.144 346.883C306.144 346.883 404.731 346.883 465.575 346.883C477.069 346.883 487.419 339.889 491.694 329.22C495.969 318.551 493.306 306.345 485 298.414C426.481 242.558 312.594 133.845 312.594 133.845Z" fill="#FBEEAC"/>
<path fill-rule="evenodd" clip-rule="evenodd" d="M301.438 132.533C302.056 132.889 302.638 133.339 303.181 133.845C303.181 133.845 417.069 242.558 475.588 298.414C483.894 306.345 486.538 318.551 482.263 329.22C477.988 339.889 467.656 346.883 456.163 346.883H306.181C306.181 346.883 404.769 346.883 465.613 346.883C477.106 346.883 487.456 339.889 491.731 329.22C496.006 318.551 493.344 306.345 485.038 298.414C426.519 242.558 312.631 133.845 312.631 133.845C309.913 131.258 305.919 130.526 302.469 132.008C302.113 132.158 301.775 132.345 301.438 132.533Z" fill="#FFF7D0"/>
<path fill-rule="evenodd" clip-rule="evenodd" d="M43.6013 440.553C38.4237 440.553 34.2217 446.895 34.2217 454.709C34.2217 478.237 40.506 500.604 51.9679 520.253C67.7631 547.32 101.155 556.125 125.673 553.464C143.719 551.482 503.296 553.888 503.296 553.888C508.436 553.803 512.563 547.49 512.563 539.732V454.709C512.563 446.895 508.361 440.553 503.183 440.553H43.6013Z" fill="#F4D160"/>
<path fill-rule="evenodd" clip-rule="evenodd" d="M62.3684 440.553H43.5977C38.4221 440.553 34.2217 446.895 34.2217 454.709C34.2217 478.237 40.5036 500.604 51.961 520.253C67.7502 547.32 101.129 556.125 125.638 553.464C125.844 553.435 126.106 553.407 126.388 553.407C105.46 551.114 82.9018 541.063 70.7318 520.253C59.2743 500.604 52.9924 478.237 52.9924 454.709C52.9924 446.895 57.1928 440.553 62.3684 440.553Z" fill="#D3A511"/>
<path fill-rule="evenodd" clip-rule="evenodd" d="M512.523 450H503.148L503.035 506.25C503.035 511.144 499.285 515.156 494.504 515.587C500.091 515.606 503.148 515.625 503.148 515.625C508.285 515.569 512.41 511.388 512.41 506.25L512.523 450Z" fill="#FFF7D0"/>
<path fill-rule="evenodd" clip-rule="evenodd" d="M306.144 421.856C311.319 421.838 315.519 417.656 315.519 412.481L315.5 84.3751C315.5 76.8938 312.537 69.7501 307.25 64.4626C301.962 59.1938 294.8 56.2313 287.337 56.2501C271.831 56.2688 259.25 68.8501 259.25 84.3751C259.25 156.525 259.269 412.519 259.269 412.519C259.269 415.013 260.244 417.394 262.006 419.156C263.769 420.9 266.15 421.894 268.644 421.894L306.144 421.856Z" fill="#F4D160"/>
<path fill-rule="evenodd" clip-rule="evenodd" d="M286.794 421.875C284.525 421.725 282.388 420.769 280.775 419.157C279.013 417.394 278.019 415.013 278.019 412.519C278.019 412.519 278.019 156.525 278.019 84.3755C278.019 72.1317 285.837 61.7255 296.75 57.8442C293.75 56.7942 290.581 56.2317 287.337 56.2505C271.831 56.2692 259.25 68.8504 259.25 84.3755C259.25 156.525 259.269 412.519 259.269 412.519C259.269 415.013 260.244 417.394 262.006 419.157C263.769 420.9 266.15 421.894 268.644 421.894L286.794 421.875Z" fill="#D3A511"/>
<path fill-rule="evenodd" clip-rule="evenodd" d="M287.311 57.8438C291.248 59.2126 294.848 61.4626 297.867 64.4626C303.136 69.7501 306.098 76.8938 306.117 84.3751V412.481C306.117 417.656 301.936 421.838 296.761 421.856L268.186 421.875C268.336 421.894 268.467 421.894 268.617 421.894L306.117 421.856C311.292 421.838 315.492 417.656 315.492 412.481L315.473 84.3751C315.473 76.8938 312.511 69.7501 307.223 64.4626C301.936 59.1938 294.773 56.2313 287.311 56.2501V57.8438ZM277.954 75.0001V57.8438V75.0001ZM287.311 57.8438V56.2501C285.736 56.2501 284.179 56.3813 282.661 56.6251C284.236 56.9063 285.811 57.3001 287.311 57.8438Z" fill="#FFE286"/>
<path fill-rule="evenodd" clip-rule="evenodd" d="M43.625 459.375C43.625 459.375 503.488 459.394 503.731 459.375C518.919 458.981 531.144 446.531 531.144 431.269C531.144 416.175 519.238 403.838 504.294 403.181C503.881 403.106 42.7438 403.106 42.3125 403.181C27.4063 403.856 15.5 416.194 15.5 431.269C15.5 446.775 28.1 459.375 43.625 459.375Z" fill="#FBEEAC"/>
<path fill-rule="evenodd" clip-rule="evenodd" d="M284.038 403.125C165.181 403.125 42.5375 403.144 42.3125 403.181C27.4063 403.856 15.5 416.194 15.5 431.269C15.5 446.775 28.1 459.375 43.625 459.375C43.625 459.375 165.594 459.375 283.906 459.375C171.781 459.375 62.3937 459.375 62.3937 459.375C46.8687 459.375 34.2687 446.775 34.2687 431.269C34.2687 416.194 46.175 403.856 61.0813 403.181C61.2875 403.144 171.406 403.125 284.038 403.125Z" fill="#E1D286"/>
<path fill-rule="evenodd" clip-rule="evenodd" d="M504.296 403.153C504.09 403.116 494.715 403.116 494.921 403.153C509.865 403.809 521.771 416.147 521.771 431.241C521.771 446.503 509.546 458.953 494.358 459.347C494.246 459.347 503.602 459.347 503.733 459.347C518.921 458.953 531.146 446.503 531.146 431.241C531.146 416.147 519.24 403.809 504.296 403.153Z" fill="#FFF7D0"/>
</svg>
