<svg width="3854" height="1289" viewBox="0 0 3854 1289" fill="none" xmlns="http://www.w3.org/2000/svg">
<path d="M666.775 1279.06C666.775 1281.87 669.338 1284.17 672.458 1284.17C675.578 1284.17 678.141 1281.87 678.141 1279.06C678.141 1276.26 675.578 1273.95 672.458 1273.95C669.227 1273.95 666.775 1276.26 666.775 1279.06Z" fill="white"/>
<path d="M79 1154.13C69.4007 1165.92 -4.83475 1184.8 -25 1189.24V1288.38H2251.34C2279 1255.33 2317.73 1189.24 2251.34 1189.24C2216.74 1189.24 2154 1207.13 2099.09 1177.98C2039 1185.93 2006 1177.98 1958.36 1161.2C1927.5 1177.98 1886 1193.88 1820 1184.97C1765.5 1211.54 1698.48 1190.48 1611 1177.98C1536.5 1200.5 1501 1178.86 1441.5 1185.93C1384.89 1192.65 1348.5 1188.57 1310 1161.2C1251 1174 1234 1193.88 1135.42 1161.2C1087 1181.08 1032.5 1168.26 996 1161.2C917.5 1181.51 891 1185.93 859 1185.93C824.5 1185.93 766.5 1184.15 737.5 1168.26C688 1191.67 594.5 1184.15 580.5 1161.2C531.5 1207.57 472.5 1168.26 421 1161.2C382 1180.18 370.671 1177.18 310 1177.18C266.91 1177.18 235.832 1164.96 198 1161.2C137 1194.76 103 1167.82 79 1154.13Z" fill="url(#paint0_linear)"/>
<path d="M72.4949 1064.96C62.8956 1083.81 20.1652 1102.71 0 1109.81V1268.34H2276.34C2304 1215.5 2342.74 1109.81 2276.34 1109.81C2209.94 1109.81 2053.36 1079.91 1983.36 1064.96C1891.7 1079.91 1673.08 1109.81 1531.89 1109.81C1390.7 1109.81 1225.41 1079.91 1160.42 1064.96C1086.76 1079.91 913.736 1109.81 810.943 1109.81C708.15 1109.81 592.458 1079.91 547.461 1064.96C524.63 1079.91 450.168 1109.81 334.976 1109.81C219.785 1109.81 111.992 1079.91 72.4949 1064.96Z" fill="url(#paint1_linear)"/>
<path d="M2325 1074.19C2292.6 1079.79 2183.5 1215.39 2133 1282.49V1289H3854V828.83L3647 804.293C3517 795.781 3255 813.307 3214.5 818.815C3174 824.323 2848 901.435 2825 901.435C2802 901.435 2541.5 958.018 2513.5 975.543C2485.5 993.069 2365.5 1067.18 2325 1074.19Z" fill="#F2C981"/>
<path d="M126.691 1208.63H25.6277C25.6277 1208.63 6.57384 1206.63 6.57384 1196.11V1144.52C6.57384 1144.52 5.79382 1134.9 22.2849 1134.9L126.691 1208.63Z" fill="#4D3A22"/>
<path d="M523.703 843.159C524.929 841.956 525.932 840.454 526.6 838.851C528.94 832.639 525.263 825.927 518.355 823.823L277.674 750.387C270.765 748.283 263.3 751.59 260.96 757.801C258.62 764.012 262.297 770.725 269.205 772.829L509.886 846.264C514.9 847.767 520.36 846.365 523.703 843.159Z" fill="#523E24"/>
<path d="M496.852 354.556C496.852 346.141 504.429 339.328 513.789 339.328V1008.06H496.852V354.556Z" fill="#4D3A22"/>
<path d="M530.836 354.556V1008.06H513.899V339.328C523.259 339.328 530.836 346.141 530.836 354.556Z" fill="#574226"/>
<path d="M-9.69385 1024.5H917.262C917.262 1024.5 913.25 1036.52 903.111 1054.55L-7.46533 1058.76C-8.91388 1048.14 -9.69385 1036.72 -9.69385 1024.5Z" fill="#E06439"/>
<path d="M903.109 1054.65C891.967 1074.29 873.581 1100.94 844.611 1126.89H13.7043C3.56458 1108.35 -4.01251 1085.91 -7.57819 1058.86L903.109 1054.65Z" fill="#FF7140"/>
<path d="M844.609 1126.88C794.245 1172.17 712.346 1215.45 583.092 1215.45H162.792C162.792 1215.45 60.8366 1212.84 13.7033 1126.88H844.609Z" fill="#5D4729"/>
<path d="M-31.2004 1024.49C-31.2004 1033.61 -22.9548 1040.92 -12.9265 1040.92H924.726C934.866 1040.92 943 1033.51 943 1024.49C943 1015.38 934.754 1008.06 924.726 1008.06H-12.9265C-23.0662 1008.06 -31.2004 1015.48 -31.2004 1024.49Z" fill="#5D4729"/>
<path d="M839.597 942.237C841.268 940.734 842.494 938.831 843.386 936.627C846.394 928.612 841.603 919.996 832.8 917.291L523.035 822.817C514.121 820.112 504.538 824.42 501.53 832.334C498.521 840.349 503.312 848.965 512.115 851.67L821.88 946.144C828.343 948.248 835.251 946.445 839.597 942.237Z" fill="#5D4729"/>
<path d="M-27.7464 890.543H149.867V910.78H-27.7464C-33.9863 910.78 -39.0004 906.272 -39.0004 900.662C-39.0004 895.051 -33.9863 890.543 -27.7464 890.543Z" fill="#5D4729"/>
<path d="M418.959 914.092H183.85V887.242H418.959C427.205 887.242 433.891 893.253 433.891 900.667C433.891 908.081 427.205 914.092 418.959 914.092Z" fill="#5D4729"/>
<path d="M530.834 421.781C530.834 421.781 587.216 731.453 794.246 905.675L601.701 846.966C601.701 846.866 534.066 765.716 530.834 421.781Z" fill="white"/>
<path d="M496.848 500.727C496.848 500.727 488.379 760.406 411.829 791.163L306.754 759.104C306.754 759.104 454.84 736.261 496.848 500.727Z" fill="white"/>
<path d="M671.344 984.319L673.461 979.51L596.02 951.258L593.903 956.067L671.344 984.319Z" fill="white"/>
<path d="M671.344 1028.5L673.461 1023.69L552.341 979.508L550.112 984.317L671.344 1028.5Z" fill="white"/>
<path d="M671.344 1079.49L673.461 1074.58L505.319 1013.27L503.201 1018.08L671.344 1079.49Z" fill="white"/>
<path d="M671.344 1139.11L673.461 1134.2L448.491 1052.14L446.374 1056.95L671.344 1139.11Z" fill="white"/>
<path d="M671.344 1205.93L673.461 1201.02L384.755 1095.72L382.527 1100.53L671.344 1205.93Z" fill="white"/>
<path d="M671.344 1281.87L673.461 1277.06L312.328 1145.22L310.1 1150.13L671.344 1281.87Z" fill="white"/>
<path d="M600.25 1341.18L602.367 1336.37L274.997 1216.85L272.768 1221.76L600.25 1341.18Z" fill="white"/>
<path d="M589.334 953.664C589.334 956.469 591.897 958.774 595.017 958.774C598.136 958.774 600.699 956.469 600.699 953.664C600.699 950.859 598.136 948.555 595.017 948.555C591.785 948.555 589.334 950.859 589.334 953.664Z" fill="white"/>
<path d="M552.341 987.024C549.202 987.024 546.658 984.736 546.658 981.914C546.658 979.092 549.202 976.805 552.341 976.805C555.479 976.805 558.023 979.092 558.023 981.914C558.023 984.736 555.479 987.024 552.341 987.024Z" fill="white"/>
<path d="M504.204 1020.79C501.066 1020.79 498.521 1018.5 498.521 1015.68C498.521 1012.85 501.066 1010.57 504.204 1010.57C507.342 1010.57 509.887 1012.85 509.887 1015.68C509.887 1018.5 507.342 1020.79 504.204 1020.79Z" fill="white"/>
<path d="M447.376 1059.66C444.237 1059.66 441.693 1057.37 441.693 1054.55C441.693 1051.73 444.237 1049.44 447.376 1049.44C450.514 1049.44 453.059 1051.73 453.059 1054.55C453.059 1057.37 450.514 1059.66 447.376 1059.66Z" fill="white"/>
<path d="M379.408 1098.13C379.408 1100.93 381.971 1103.24 385.091 1103.24C388.211 1103.24 390.773 1100.93 390.773 1098.13C390.773 1095.32 388.211 1093.02 385.091 1093.02C381.971 1093.02 379.408 1095.32 379.408 1098.13Z" fill="white"/>
<path d="M305.529 1147.72C305.529 1150.53 308.092 1152.83 311.212 1152.83C314.332 1152.83 316.895 1150.53 316.895 1147.72C316.895 1144.92 314.332 1142.61 311.212 1142.61C308.092 1142.61 305.529 1144.92 305.529 1147.72Z" fill="white"/>
<path d="M666.775 981.414C666.775 984.219 669.338 986.524 672.458 986.524C675.578 986.524 678.141 984.219 678.141 981.414C678.141 978.609 675.578 976.305 672.458 976.305C669.227 976.305 666.775 978.609 666.775 981.414Z" fill="white"/>
<path d="M666.775 1026.1C666.775 1028.9 669.338 1031.21 672.458 1031.21C675.578 1031.21 678.141 1028.9 678.141 1026.1C678.141 1023.29 675.578 1020.99 672.458 1020.99C669.227 1020.99 666.775 1023.29 666.775 1026.1Z" fill="white"/>
<path d="M666.775 1076.99C666.775 1079.79 669.338 1082.1 672.458 1082.1C675.578 1082.1 678.141 1079.79 678.141 1076.99C678.141 1074.18 675.578 1071.88 672.458 1071.88C669.227 1071.98 666.775 1074.18 666.775 1076.99Z" fill="white"/>
<path d="M666.775 1135.3C666.775 1138.11 669.338 1140.41 672.458 1140.41C675.578 1140.41 678.141 1138.11 678.141 1135.3C678.141 1132.5 675.578 1130.19 672.458 1130.19C669.227 1130.19 666.775 1132.5 666.775 1135.3Z" fill="white"/>
<path d="M666.775 1203.52C666.775 1206.33 669.338 1208.63 672.458 1208.63C675.578 1208.63 678.141 1206.33 678.141 1203.52C678.141 1200.72 675.578 1198.41 672.458 1198.41C669.227 1198.41 666.775 1200.72 666.775 1203.52Z" fill="white"/>
<path d="M149.867 569.656C149.867 569.656 115.771 823.725 13.7043 890.549H117.554C117.554 890.549 139.059 834.245 149.867 569.656Z" fill="white"/>
<path d="M247.922 887.242C247.922 887.242 195.106 856.486 183.851 717.93C183.851 717.93 222.962 837.551 345.754 887.242H247.922Z" fill="white"/>
<path d="M149.867 569.656V890.549H69.0831C68.9717 890.549 137.945 839.054 149.867 569.656Z" fill="#E0E0E0"/>
<path d="M183.743 717.93C183.743 717.93 201.571 851.877 256.504 887.643L183.743 887.242V717.93Z" fill="#E0E0E0"/>
<path d="M183.742 424.49V1008.07H166.805V409.262C176.165 409.262 183.742 416.074 183.742 424.49Z" fill="#574226"/>
<path d="M149.868 424.49C149.868 416.074 157.445 409.262 166.805 409.262V1008.07H149.868V424.49Z" fill="#4D3A22"/>
<path d="M145.744 487.403V419.478C145.744 408.959 155.215 400.543 166.804 400.543C178.504 400.543 187.863 409.059 187.863 419.478V487.403H145.744Z" fill="#414042"/>
<path d="M492.725 417.474V349.548C492.725 339.029 502.196 330.613 513.784 330.613C525.484 330.613 534.844 339.129 534.844 349.548V417.474H492.725Z" fill="#414042"/>
<path d="M301.851 884.234H368.484V916.995H301.851V884.234Z" fill="#414042"/>
<path d="M12.0317 888.746H60.3906V912.59H12.0317V888.746Z" fill="#414042"/>
<path d="M496.848 500.727C496.848 500.727 480.245 751.79 401.801 788.157L496.848 817.111V500.727Z" fill="#E0E0E0"/>
<path d="M530.833 421.781V825.226L611.84 849.972C611.84 849.872 555.124 753.494 530.833 421.781Z" fill="#E0E0E0"/>
<path d="M722.934 879.926L708.337 916.394L637.024 894.653L651.509 858.086L722.934 879.926Z" fill="#414042"/>
<path d="M669.557 900.664H675.352V1300.7H669.557V900.664Z" fill="white"/>
<path d="M244.971 1189.11L670.656 898.5L674.16 902.649L248.475 1193.26L244.971 1189.11Z" fill="white"/>
<path d="M250.038 1293.79L674.461 902.466L670.338 898.859L245.804 1290.18L250.038 1293.79Z" fill="white"/>
<path d="M352.775 1328.35L674.797 902.166L670.006 899.16L347.872 1325.45L352.775 1328.35Z" fill="white"/>
<path d="M470.443 1354L675.133 901.668L669.673 899.664L465.094 1352.1L470.443 1354Z" fill="white"/>
<path d="M570.575 1352.63L669.594 900.25L675.279 901.256L576.26 1353.64L570.575 1352.63Z" fill="white"/>
<path d="M657.857 900.665C657.857 907.878 664.32 913.689 672.343 913.689C680.365 913.689 686.828 907.878 686.828 900.665C686.828 893.451 680.365 887.641 672.343 887.641C664.431 887.641 657.857 893.451 657.857 900.665Z" fill="#FF7140"/>
<path d="M3167.8 331.051C3167.8 331.051 3240.34 616.477 3267.83 687.685C3295.03 758.597 3572 1039.57 3572 1039.57C3572 1039.57 3550.65 1061.23 3527.25 1073.1C3503.85 1084.97 3457.06 1073.1 3457.06 1073.1C3457.06 1073.1 3239.75 789.454 3220.45 728.63C3200.85 667.806 3137.1 331.051 3137.1 331.051H3167.8Z" fill="#6A543F"/>
<path d="M3015.72 171.72C2979.45 153.918 2931.48 263.104 2931.48 263.104C2931.48 263.104 2953.71 263.104 2975.35 265.181L3002.55 219.192L2987.35 266.368C2995.53 267.258 3002.85 268.741 3008.4 270.225C3013.38 271.708 3023.03 276.752 3034.73 283.576L3051.1 265.774L3044.67 289.51C3084.74 313.246 3140.02 350.037 3140.02 350.037L3136.51 309.686C3136.8 309.389 3051.98 189.522 3015.72 171.72Z" fill="#628339"/>
<path d="M3173.65 223.351L3205.82 236.109C3207.29 234.329 3208.46 232.548 3209.63 231.362C3215.18 224.834 3231.27 205.845 3249.4 183.889L3209.63 178.252L3259.93 171.428C3290.35 134.637 3322.81 95.1758 3322.81 95.1758C3322.81 95.1758 3220.16 99.6263 3176.58 141.758C3133 183.889 3132.41 310.877 3132.41 310.877L3140.02 349.449C3140.02 349.449 3177.75 279.427 3199.39 246.197L3173.65 223.351Z" fill="#417035"/>
<path d="M2911.01 344.705C2847.84 400.188 2871.23 509.077 2871.23 509.077L2911.01 485.341L2925.05 413.539L2934.7 471.396L3013.08 425.111L3001.38 363.99L3031.8 413.836L3140.02 349.749L3136.51 309.397C3136.8 309.397 2974.48 289.221 2911.01 344.705Z" fill="#417035"/>
<path d="M3297.95 178.551L3363.76 224.243C3401.78 217.716 3446.82 212.078 3446.82 212.078C3446.82 212.078 3357.03 145.914 3292.4 154.222C3227.76 162.529 3124.22 314.144 3124.22 314.144L3140.31 350.044C3140.31 350.044 3191.49 315.33 3239.17 283.88L3217.82 242.045L3254.08 273.792C3283.04 254.803 3308.48 239.078 3316.96 235.221C3321.64 233.144 3329.54 231.067 3339.48 228.99L3297.95 178.551Z" fill="#628339"/>
<path d="M3563.52 417.689C3563.52 417.689 3475.19 315.327 3411.14 283.283C3347.09 251.239 3136.8 309.393 3136.8 309.393L3140.31 349.744L3260.22 369.03V302.569L3282.74 372.887L3439.51 398.106L3417.28 332.535L3458.52 401.073L3563.52 417.689Z" fill="#417035"/>
<path d="M3136.8 309.391L3140.31 349.742C3140.31 349.742 3206.41 403.742 3255.54 447.357L3283.91 416.5L3265.78 456.258C3280.4 469.312 3292.69 480.884 3300.29 488.895C3313.45 503.136 3336.26 530.73 3358.79 558.62L3376.92 487.411L3374.29 577.905C3403.24 614.103 3428.39 646.74 3428.39 646.74C3428.39 646.74 3469.63 519.455 3395.05 430.445C3309.65 329.27 3136.8 309.391 3136.8 309.391Z" fill="#628339"/>
<path d="M3020.98 366.66C2982.08 397.814 2902.82 512.341 2892.59 555.956C2882.06 599.571 2957.22 728.636 2957.22 728.636C2957.22 728.636 2965.12 698.669 2975.65 659.504L2928.56 579.692L2983.25 631.615C2987.05 617.67 2990.86 602.835 2994.95 588.593L2951.08 555.362L2998.75 574.648C3011.62 528.066 3023.32 487.714 3026.25 482.671C3028 480 3034.14 471.989 3043.21 461.605L3018.64 438.165L3052.57 450.627C3086.49 410.869 3140.6 350.045 3140.6 350.045L3137.09 309.694C3136.8 309.397 3059.88 335.507 3020.98 366.66Z" fill="#628339"/>
<path d="M3422.26 1027.71C3416.99 1020.59 3411.14 1012.87 3405 1004.57L3486.6 951.16C3495.38 960.358 3503.56 969.259 3511.46 977.27L3422.26 1027.71Z" fill="#987555"/>
<path d="M3396.81 853.535C3403.25 860.953 3409.97 868.074 3416.7 875.491L3335.1 908.722C3329.84 901.304 3324.57 894.183 3319.6 886.766L3396.81 853.535Z" fill="#987555"/>
<path d="M3305.27 745.539C3308.49 749.396 3311.7 753.55 3314.92 757.704L3267.25 810.813C3263.15 804.583 3259.35 798.649 3255.55 793.011L3305.27 745.539Z" fill="#987555"/>
<path d="M3206.7 675.817C3204.95 668.4 3203.19 660.389 3201.44 652.081L3251.16 637.246C3253.5 644.367 3255.55 651.191 3257.59 657.718L3206.7 675.817Z" fill="#987555"/>
<path d="M3218.7 524.5C3221.04 532.808 3223.38 541.115 3225.72 549.423L3180.68 554.467C3179.22 547.049 3177.75 539.928 3176.29 532.511L3218.7 524.5Z" fill="#987555"/>
<path d="M3191.49 422.73C3193.54 430.445 3195.59 438.159 3197.64 446.17L3160.2 452.401C3159.03 445.873 3157.57 439.346 3156.4 432.818L3191.49 422.73Z" fill="#987555"/>
<path d="M3696 248.142L3617.13 1088.67C3617.13 1088.67 3583.32 1105 3549.52 1102.84C3515.72 1100.38 3500 1081.59 3500 1081.59L3658.64 236.438L3696 248.142Z" fill="#6A543F"/>
<path d="M3812.7 76.845C3849.43 59.043 3898 168.229 3898 168.229C3898 168.229 3875.49 168.229 3853.57 170.306L3826.03 124.317L3841.43 171.493C3833.14 172.383 3825.73 173.866 3820.11 175.35C3815.07 176.833 3805.3 181.877 3793.45 188.701L3776.87 170.899L3783.38 194.635C3742.81 218.371 3686.84 255.162 3686.84 255.162L3690.39 214.811C3689.8 214.514 3775.98 94.6471 3812.7 76.845Z" fill="#436D33"/>
<path d="M3652.78 128.472L3620.2 141.23C3618.72 139.449 3617.54 137.669 3616.35 136.482C3610.73 129.955 3594.44 110.966 3576.08 89.0103L3616.06 83.0763L3565.12 76.2522C3534.32 39.4613 3501.44 0 3501.44 0C3501.44 0 3605.39 4.45052 3649.52 46.5821C3693.65 88.7136 3694.24 215.702 3694.24 215.702L3686.54 254.273C3686.54 254.273 3648.34 184.251 3626.42 151.021L3652.78 128.472Z" fill="#345528"/>
<path d="M3918.43 249.822C3982.4 305.305 3958.71 414.194 3958.71 414.194L3918.43 390.458L3904.22 318.656L3894.44 376.513L3815.07 330.228L3826.92 269.107L3796.12 318.953L3686.54 254.866L3690.09 214.514C3689.8 214.514 3854.46 194.339 3918.43 249.822Z" fill="#345528"/>
<path d="M3526.61 83.6722L3459.98 129.364C3421.48 122.837 3375.87 117.199 3375.87 117.199C3375.87 117.199 3466.79 51.0351 3532.24 59.3427C3597.69 67.6503 3702.53 219.265 3702.53 219.265L3686.24 255.165C3686.24 255.165 3634.41 220.451 3586.14 189.001L3607.76 147.166L3570.74 179.21C3541.42 160.221 3515.66 144.496 3507.07 140.639C3502.33 138.562 3494.33 136.485 3484.26 134.408L3526.61 83.6722Z" fill="#436D33"/>
<path d="M3258 322.814C3258 322.814 3347.44 220.452 3412.3 188.408C3477.16 156.364 3690.09 214.518 3690.09 214.518L3686.54 254.869L3565.11 274.155V207.397L3542.31 277.715L3383.57 302.935L3406.08 237.364L3364.32 305.902L3258 322.814Z" fill="#345528"/>
<path d="M3689.8 214.516L3686.24 254.867C3686.24 254.867 3619.31 308.867 3569.56 352.482L3540.83 321.625L3559.19 361.383C3544.38 374.437 3531.94 386.009 3524.24 394.02C3510.92 408.261 3487.82 435.855 3465.01 463.745L3446.65 392.536L3449.32 483.03C3420 519.228 3394.53 551.865 3394.53 551.865C3394.53 551.865 3352.77 424.58 3428.29 335.57C3514.77 234.098 3689.8 214.516 3689.8 214.516Z" fill="#436D33"/>
<path d="M3807.08 271.482C3846.47 302.636 3926.73 417.162 3937.09 460.777C3947.75 504.393 3871.64 633.458 3871.64 633.458C3871.64 633.458 3863.65 603.491 3852.98 564.326L3900.67 484.514L3845.28 536.436C3841.43 522.491 3837.58 507.656 3833.44 493.415L3877.86 460.184L3829.59 479.47C3816.56 432.888 3804.71 392.536 3801.75 387.492C3799.97 384.822 3793.75 376.811 3784.57 366.427L3809.45 342.987L3775.09 355.449C3740.74 315.691 3685.95 254.867 3685.95 254.867L3689.51 214.516C3689.8 214.516 3767.69 240.625 3807.08 271.482Z" fill="#436D33"/>
<path d="M3686.24 347.734L3683.58 374.141L3632.05 371.767L3635.9 351.888L3686.24 347.734Z" fill="#987555"/>
<path d="M3614.27 462.855L3674.39 470.273L3670.54 509.438L3608.06 494.602L3614.27 462.855Z" fill="#987555"/>
<path d="M3580.22 637.021L3589.1 592.812L3661.96 596.966L3658.7 629.603L3580.22 637.021Z" fill="#987555"/>
<path d="M3563.34 725.137L3648.93 730.774L3645.96 762.521H3555.93L3563.34 725.137Z" fill="#987555"/>
<path d="M3533.42 878.238L3634.12 883.579L3629.38 930.458L3526.61 912.656L3533.42 878.238Z" fill="#987555"/>
<path d="M3470.82 1069C3293.61 1069 3133.82 1094 3106.82 1115C3065.32 1168.5 3495.82 1168.5 3512.32 1169C3528.82 1169.5 3747.82 1165.5 3804.32 1160C3849.52 1155.6 3855.82 1138.83 3853.32 1131C3807.98 1108.33 3642.82 1069 3470.82 1069Z" fill="#F5D08D"/>
<path d="M3527.55 1080C3401.11 1080 3287.09 1096.99 3267.83 1111.27C3238.21 1147.63 3545.39 1147.63 3557.17 1147.97C3568.94 1148.31 3725.2 1145.59 3765.52 1141.85C3797.77 1138.86 3802.27 1127.47 3800.48 1122.14C3768.14 1106.73 3650.28 1080 3527.55 1080Z" fill="#CCA155"/>
<ellipse cx="3177.32" cy="1091" rx="51.5" ry="49" fill="#925C30"/>
<ellipse cx="3471.32" cy="1087.5" rx="62.5" ry="59.5" fill="#925C30"/>
<ellipse cx="3718.32" cy="1099" rx="50.5" ry="48" fill="#925C30"/>
<path d="M3135.82 1078C3136.62 1074.8 3153.82 1063.67 3162.32 1058.5C3176.32 1056.5 3183.32 1077 3170.32 1079.5C3157.32 1082 3134.82 1082 3135.82 1078Z" fill="#926231"/>
<path d="M3482.4 1052.71C3481.7 1057.41 3459.74 1075.41 3448.84 1083.82C3430.11 1088.29 3418.14 1059.55 3435.46 1054.47C3452.77 1049.39 3483.27 1046.83 3482.4 1052.71Z" fill="#926231"/>
<path d="M3702.19 1073.61C3702.13 1078.23 3693.92 1094.97 3689.82 1102.76C3682.29 1106.27 3675.94 1077.26 3682.86 1073.07C3689.77 1068.89 3702.26 1067.84 3702.19 1073.61Z" fill="#926231"/>
<defs>
<linearGradient id="paint0_linear" x1="1131.5" y1="1154.13" x2="1131.5" y2="1288.38" gradientUnits="userSpaceOnUse">
<stop stop-color="#6CF0F8"/>
<stop offset="1" stop-color="#B9FBFF"/>
</linearGradient>
<linearGradient id="paint1_linear" x1="1156.5" y1="1064.96" x2="1156.5" y2="1268.34" gradientUnits="userSpaceOnUse">
<stop stop-color="#A5F5FA"/>
<stop offset="1" stop-color="#A5F5FA" stop-opacity="0"/>
</linearGradient>
</defs>
</svg>
