<svg width="3843" height="2157" viewBox="0 0 3843 2157" fill="none" xmlns="http://www.w3.org/2000/svg">
<g clip-path="url(#clip0)">
<path d="M3853 0H0V2157H3853V0Z" fill="#C5D6D2"/>
<path d="M3853 1719.22H0V2157H3853V1719.22Z" fill="#8EA8AE"/>
<path d="M3853 1651.21H0V1719.22H3853V1651.21Z" fill="#3C6074"/>
<path d="M523.18 1651.21L564.187 1719.22H2143.92L2101.53 1651.21H523.18Z" fill="#3C6074"/>
<path d="M3853 791.268L3579.71 351.504L2555.91 1229.93L2808.84 1651.21H3853V791.268Z" fill="#F2F4DF"/>
<path d="M3853 1651.21H2808.84L2849.57 1719.22H3853V1651.21Z" fill="#C3C3B8"/>
<path d="M1745.5 786C1745.5 786 1848.5 607.5 2133 668" stroke="#223742" stroke-opacity="0.25" stroke-width="6.66667" stroke-miterlimit="10" stroke-dasharray="15.67 15.67"/>
<path d="M929 1029.77C929 1029.77 964.5 765.501 1741 795.001" stroke="#223742" stroke-opacity="0.25" stroke-width="6.66667" stroke-miterlimit="10" stroke-dasharray="15.67 15.67"/>
<rect x="3551.79" y="58.582" width="232.356" height="146.051" rx="36" fill="#316987"/>
<rect x="3586" y="85" width="164" height="11" rx="5.5" fill="#A9C2C2"/>
<rect x="3586" y="126" width="164" height="11" rx="5.5" fill="#A9C2C2"/>
<rect x="3586" y="167" width="164" height="11" rx="5.5" fill="#A9C2C2"/>
<path d="M3570.51 351.504H2549.37V1263.17H3570.51V351.504Z" fill="#F9FCEE"/>
<path d="M2825 484H2549V1228H2825V484Z" fill="#F9E9C7"/>
<path d="M3430.52 473.414L3321.27 457.371V1228H3430.52V473.414Z" fill="#EDBFAA"/>
<path d="M3321.26 457.371L3054.18 485.446V1228H3321.26V457.371Z" fill="#F8E5CA"/>
<path d="M3278.17 523.645H3226.01V541.215H3278.17V523.645Z" fill="#EDBCA8"/>
<path d="M3197.19 523.645H3093.16V541.215H3197.19V523.645Z" fill="#EDBCA8"/>
<path d="M3278.17 575.402H3226.01V592.973H3278.17V575.402Z" fill="#EDBCA8"/>
<path d="M3197.19 575.402H3093.16V592.973H3197.19V575.402Z" fill="#EDBCA8"/>
<path d="M3278.17 626.969H3226.01V644.539H3278.17V626.969Z" fill="#EDBCA8"/>
<path d="M3197.19 626.969H3093.16V644.539H3197.19V626.969Z" fill="#EDBCA8"/>
<path d="M3278.17 678.727H3226.01V696.297H3278.17V678.727Z" fill="#EDBCA8"/>
<path d="M3197.19 678.727H3093.16V696.297H3197.19V678.727Z" fill="#EDBCA8"/>
<path d="M3278.17 730.293H3226.01V747.864H3278.17V730.293Z" fill="#EDBCA8"/>
<path d="M3197.19 730.293H3093.16V747.864H3197.19V730.293Z" fill="#EDBCA8"/>
<path d="M3278.17 782.047H3226.01V799.618H3278.17V782.047Z" fill="#EDBCA8"/>
<path d="M3197.19 782.047H3093.16V799.618H3197.19V782.047Z" fill="#EDBCA8"/>
<path d="M3278.17 833.613H3226.01V851.184H3278.17V833.613Z" fill="#EDBCA8"/>
<path d="M3197.19 833.613H3093.16V851.184H3197.19V833.613Z" fill="#EDBCA8"/>
<path d="M3278.17 885.371H3226.01V902.942H3278.17V885.371Z" fill="#EDBCA8"/>
<path d="M3197.19 885.371H3093.16V902.942H3197.19V885.371Z" fill="#EDBCA8"/>
<path d="M3278.17 936.938H3226.01V954.508H3278.17V936.938Z" fill="#EDBCA8"/>
<path d="M3197.19 936.938H3093.16V954.508H3197.19V936.938Z" fill="#EDBCA8"/>
<path d="M3278.17 988.695H3226.01V1006.27H3278.17V988.695Z" fill="#EDBCA8"/>
<path d="M3197.19 988.695H3093.16V1006.27H3197.19V988.695Z" fill="#EDBCA8"/>
<path d="M3278.17 1040.26H3226.01V1057.83H3278.17V1040.26Z" fill="#EDBCA8"/>
<path d="M3197.19 1040.26H3093.16V1057.83H3197.19V1040.26Z" fill="#EDBCA8"/>
<path d="M3278.17 1092.02H3226.01V1109.59H3278.17V1092.02Z" fill="#EDBCA8"/>
<path d="M3197.19 1092.02H3093.16V1109.59H3197.19V1092.02Z" fill="#EDBCA8"/>
<path d="M3278.17 1143.59H3226.01V1161.16H3278.17V1143.59Z" fill="#EDBCA8"/>
<path d="M3197.19 1143.59H3093.16V1161.16H3197.19V1143.59Z" fill="#EDBCA8"/>
<path d="M3278.17 1195.34H3226.01V1212.91H3278.17V1195.34Z" fill="#EDBCA8"/>
<path d="M3197.19 1195.34H3093.16V1212.91H3197.19V1195.34Z" fill="#EDBCA8"/>
<path d="M2980.61 602.188H2664.11V1263H2980.61V602.188Z" fill="#E7BBB5"/>
<path d="M3063.79 602.188H2980.61V1263H3063.79V602.188Z" fill="#CFA09B"/>
<path d="M2758.82 643.586H2695.41V659.17H2758.82V643.586Z" fill="#F3E0CA"/>
<path d="M2920.77 643.586H2793.95V659.17H2920.77V643.586Z" fill="#F3E0CA"/>
<path d="M2758.82 687.348H2695.41V702.931H2758.82V687.348Z" fill="#F3E0CA"/>
<path d="M2920.77 687.348H2793.95V702.931H2920.77V687.348Z" fill="#F3E0CA"/>
<path d="M2758.82 731.105H2695.41V746.689H2758.82V731.105Z" fill="#F3E0CA"/>
<path d="M2920.77 731.105H2793.95V746.689H2920.77V731.105Z" fill="#F3E0CA"/>
<path d="M2758.82 774.867H2695.41V790.451H2758.82V774.867Z" fill="#F3E0CA"/>
<path d="M2920.77 774.867H2793.95V790.451H2920.77V774.867Z" fill="#F3E0CA"/>
<path d="M2758.82 818.625H2695.41V834.209H2758.82V818.625Z" fill="#F3E0CA"/>
<path d="M2920.77 818.625H2793.95V834.209H2920.77V818.625Z" fill="#F3E0CA"/>
<path d="M2758.82 862.387H2695.41V877.97H2758.82V862.387Z" fill="#F3E0CA"/>
<path d="M2920.77 862.387H2793.95V877.97H2920.77V862.387Z" fill="#F3E0CA"/>
<path d="M2758.82 906.305H2695.41V921.889H2758.82V906.305Z" fill="#F3E0CA"/>
<path d="M2920.77 906.305H2793.95V921.889H2920.77V906.305Z" fill="#F3E0CA"/>
<path d="M2758.82 950.062H2695.41V965.646H2758.82V950.062Z" fill="#F3E0CA"/>
<path d="M2920.77 950.062H2793.95V965.646H2920.77V950.062Z" fill="#F3E0CA"/>
<path d="M2758.82 993.824H2695.41V1009.41H2758.82V993.824Z" fill="#F3E0CA"/>
<path d="M2920.77 993.824H2793.95V1009.41H2920.77V993.824Z" fill="#F3E0CA"/>
<path d="M2758.82 1037.59H2695.41V1053.17H2758.82V1037.59Z" fill="#F3E0CA"/>
<path d="M2920.77 1037.59H2793.95V1053.17H2920.77V1037.59Z" fill="#F3E0CA"/>
<path d="M2758.82 1081.34H2695.41V1096.93H2758.82V1081.34Z" fill="#F3E0CA"/>
<path d="M2920.77 1081.34H2793.95V1096.93H2920.77V1081.34Z" fill="#F3E0CA"/>
<path d="M2758.82 1125.11H2695.41V1140.69H2758.82V1125.11Z" fill="#F3E0CA"/>
<path d="M2920.77 1125.11H2793.95V1140.69H2920.77V1125.11Z" fill="#F3E0CA"/>
<path d="M2758.82 1168.87H2695.41V1184.45H2758.82V1168.87Z" fill="#F3E0CA"/>
<path d="M2920.77 1168.87H2793.95V1184.45H2920.77V1168.87Z" fill="#F3E0CA"/>
<path d="M2758.82 1212.62H2695.41V1228.21H2758.82V1212.62Z" fill="#F3E0CA"/>
<path d="M2920.77 1212.62H2793.95V1228.21H2920.77V1212.62Z" fill="#F3E0CA"/>
<path d="M2549.37 1262.95V1229.93H3519.18V351.504H3570.51V1262.95H2549.37Z" fill="#CACECC"/>
<path d="M2901.56 351.504H2874.11V1243.58H2901.56V351.504Z" fill="#BABEBC"/>
<path d="M3241.94 351.504H3214.48V1243.58H3241.94V351.504Z" fill="#BABEBC"/>
<path d="M3552.12 625.09H2549.1V647.1H3552.12V625.09Z" fill="#BABEBC"/>
<path d="M3552.12 1003.01H2549.1V1025.02H3552.12V1003.01Z" fill="#BABEBC"/>
<path d="M3637.21 319.148H2500.79V351.503H3637.21V319.148Z" fill="#A9C2C2"/>
<path d="M130.202 1958.69C124.712 1955.83 89.5765 1772.04 89.5765 1666.83C89.5765 1561.62 80.2435 1447.61 34.1275 1383.78C-11.9885 1320.17 -67.4375 1333.38 -67.4375 1333.38C-67.4375 1333.38 8.3245 1302.34 82.165 1346.81C156.005 1391.27 163.417 1502.42 145.025 1669.69C126.634 1837.19 132.124 1919.29 145.025 1950.77C157.927 1982.24 117.301 1807.48 218.866 1671.02C320.431 1534.77 351.999 1470.94 529.326 1423.62C529.326 1423.62 405.526 1478.43 339.097 1616.21C272.668 1753.99 270.472 1822.45 220.787 1881.65C171.103 1940.86 150.515 1963.09 150.515 1972.12C150.515 1980.92 130.202 1958.69 130.202 1958.69Z" fill="#276B5A"/>
<path d="M63.2227 1355.39C63.2227 1355.39 131.024 1388.63 122.789 1538.74C114.554 1688.85 117.299 1842.04 132.397 1896.62C147.769 1950.99 158.749 1916.65 202.943 1767.64C247.138 1618.63 388.505 1499.78 388.505 1499.78C388.505 1499.78 259.49 1615.33 213.923 1750.91C168.356 1886.5 175.768 1928.32 147.22 1934.7C118.672 1941.08 103.3 1804.4 114.554 1648.79C125.809 1493.17 124.162 1411.96 63.2227 1355.39Z" fill="#0F2F42"/>
<path d="M131.849 1988.4C131.849 1988.4 117.026 1899.48 104.125 1855.02C91.2235 1810.56 72.832 1770.5 70.9105 1758.62C68.989 1746.73 91.2235 1804.62 104.125 1828.17C117.026 1851.72 89.302 1720.1 41.2645 1628.09C-6.77304 1536.31 -60.3006 1481.51 -110.26 1444.31C-160.219 1407.11 -245.039 1362.87 -245.039 1362.87C-245.039 1362.87 -110.26 1389.5 -23.243 1450.25C63.499 1511 111.536 1648.78 111.536 1736.16C111.536 1823.55 131.849 1896.18 131.849 1918.41C131.849 1940.64 129.928 1744.97 156.005 1666.61C182.083 1588.26 244.669 1457.74 313.019 1416.14C381.37 1374.76 532.894 1330.3 532.894 1330.3C532.894 1330.3 423.917 1358.47 370.39 1439.91C316.862 1521.35 276.237 1571.75 231.767 1675.42C187.298 1779.08 168.907 1814.74 154.084 1897.72C139.261 1980.7 144.751 2014.81 144.751 2014.81L131.849 1988.4Z" fill="#14565A"/>
<path d="M380.547 1397.43C380.547 1397.43 275.139 1468.52 204.593 1618.63C134.046 1768.74 145.026 1935.36 145.026 1950.99C145.026 1966.61 136.791 1959.79 136.791 1959.79C136.791 1959.79 114.282 1550.84 380.547 1397.43Z" fill="#0F2F42"/>
<path d="M-115.75 1420.76C-24.067 1469.18 33.8525 1546.44 70.6355 1627.21C68.9885 1622.37 67.616 1617.75 65.969 1613.13C13.265 1460.82 -115.75 1420.76 -115.75 1420.76ZM132.124 1900.8C132.124 1908.5 132.124 1914.45 132.124 1917.53C131.575 1895.52 114.007 1830.37 112.085 1750.69C102.752 1710.85 89.576 1668.59 70.91 1627.21C119.771 1776.66 132.673 1952.08 132.673 1952.08C132.673 1952.08 133.496 1932.49 132.124 1900.8Z" fill="#0F2F42"/>
<path d="M273.218 2190.24H20.9529L-34.4961 1930.08H328.667L273.218 2190.24Z" fill="#387189"/>
<path d="M323.178 1951.42H-28.7314L-50.6914 1936.9H345.138L323.178 1951.42Z" fill="#C2BBA9"/>
<path d="M348.981 1944.16H-54.8085L-80.0625 1925.23H374.235L348.981 1944.16Z" fill="#155B82"/>
<path d="M1443.68 0H1422.27V116.874H1443.68V0Z" fill="#15233E"/>
<path d="M2397.02 0H2375.61V116.874H2397.02V0Z" fill="#15233E"/>
<path d="M2509.29 116.875H1921.59H1333.89L1282.83 194.791H1921.59H2560.35L2509.29 116.875Z" fill="#101C39"/>
<path d="M2471.69 166.617H1371.77V194.79H2471.69V166.617Z" fill="#1A597D"/>
<path d="M1698.69 2313.05H1529.6L1013.82 1901.9H1183.18L1698.69 2313.05Z" fill="#4C7F96"/>
<path d="M2055.88 2313.15H1886.79L1371 1902H1540.37L2055.88 2313.15Z" fill="#4C7F96"/>
<path d="M3436.64 1350.77L3423.84 1333.48C3415.79 1339.63 3409.39 1344.37 3406.55 1346.5C3395.42 1354.79 3371.26 1356.21 3369.36 1361.19C3367.23 1366.4 3382.15 1360.95 3382.15 1360.95C3374.1 1382.03 3351.83 1379.43 3347.57 1383.93C3343.31 1388.66 3363.91 1402.64 3376.94 1397.66C3389.97 1392.69 3403.71 1377.77 3416.74 1365.45C3420.76 1362.14 3428.11 1356.69 3436.64 1350.77Z" fill="#E6A29B"/>
<path d="M3622.11 1058.02C3622.11 1058.02 3617.37 1050.91 3615.95 1043.57C3614.77 1035.99 3627.08 1021.78 3624.71 992.411C3622.11 963.041 3610.5 930.119 3569.29 933.909C3528.07 937.698 3522.62 981.99 3522.62 990.043C3522.62 998.096 3529.49 1070.34 3536.83 1071.05C3544.41 1071.76 3566.21 1063.47 3566.21 1063.47V1077.44C3566.21 1077.68 3613.82 1067.02 3622.11 1058.02Z" fill="#E6A29B"/>
<path d="M3538.02 949.069C3538.02 949.069 3517.65 940.543 3513.38 938.174C3509.12 936.042 3500.59 936.753 3501.3 943.622C3502.01 950.254 3522.39 959.254 3531.15 958.78C3539.91 958.543 3538.02 949.069 3538.02 949.069Z" fill="#0B1225"/>
<path d="M3626.85 962.807C3626.85 962.807 3633.95 1003.07 3629.45 1014.2C3624.95 1025.34 3618.32 1033.63 3618.32 1033.63C3618.32 1033.63 3595.82 1007.1 3595.58 1007.1C3595.1 1006.39 3596.53 1003.07 3596.53 1002.12C3597 999.282 3596.53 997.861 3594.63 995.255C3591.08 990.755 3585.63 988.15 3580.18 986.255C3569.29 982.465 3558.15 979.149 3548.68 972.281C3542.76 968.017 3536.83 963.517 3531.15 958.78C3531.15 958.78 3544.41 931.068 3556.02 927.279C3567.63 923.489 3612.4 941.016 3612.4 941.016L3626.85 962.807Z" fill="#473134"/>
<path d="M3580.66 999.752C3580.66 999.752 3589.89 973.698 3601.5 981.988C3613.11 990.278 3606 1021.54 3588.24 1024.86C3570.47 1028.17 3580.66 999.752 3580.66 999.752Z" fill="#E6A29B"/>
<path d="M3626.85 962.805C3626.85 962.805 3631.35 930.356 3615.24 918.04C3599.13 905.723 3555.07 896.96 3536.36 940.541C3536.36 940.541 3526.41 938.409 3511.96 938.409C3511.73 938.409 3547.02 959.963 3626.85 962.805Z" fill="#1A3168"/>
<path d="M3666.4 1406.19C3666.4 1406.19 3672.56 1499.04 3621.87 1585.73C3571.18 1672.41 3564.07 1747.26 3564.07 1747.26L3545.83 1992.4L3498.93 1992.16L3488.98 1686.86L3502.72 1414.48L3666.4 1406.19Z" fill="#142245"/>
<path d="M3650.53 1520.12L3640.35 1768.34L3637.74 1998.09L3593.21 2000.46C3593.21 2000.46 3580.89 1690.65 3580.42 1682.6C3579.94 1674.79 3570.47 1606.57 3570.47 1606.57L3650.53 1520.12Z" fill="#142245"/>
<path d="M3668.06 1422.54C3668.06 1422.54 3503.2 1421.11 3493.72 1422.54C3493.72 1422.54 3517.65 1165.31 3566.21 1077.44L3622.11 1058.02C3622.11 1058.02 3666.88 1127.18 3666.88 1208.42C3666.88 1289.66 3668.06 1422.54 3668.06 1422.54Z" fill="#295166"/>
<path d="M3592.02 1253.18C3592.02 1253.18 3635.14 1143.52 3620.45 1116.76C3606 1090.23 3577.34 1094.73 3563.13 1136.18C3548.91 1177.63 3529.25 1232.58 3529.25 1232.58C3529.25 1232.58 3415.55 1334.66 3407.26 1337.5C3407.26 1337.5 3417.21 1368.06 3434.74 1372.79C3434.98 1372.79 3588.23 1263.37 3592.02 1253.18Z" fill="#55798B"/>
<path d="M3547.97 1984.35C3547.97 1984.35 3558.86 2017.04 3551.76 2024.85C3544.65 2032.67 3448.72 2030.06 3446.35 2023.91C3439.48 2006.62 3502.96 1987.43 3502.96 1987.43L3547.97 1984.35Z" fill="#8E5F65"/>
<path d="M3636.56 1984.35C3636.56 1984.35 3647.45 2017.04 3640.35 2024.85C3633.24 2032.67 3537.31 2030.06 3534.94 2023.91C3528.07 2006.62 3591.55 1987.43 3591.55 1987.43L3636.56 1984.35Z" fill="#8E5F65"/>
<path d="M2715.11 1216.59C2715.11 1216.59 2703.13 1284.99 2704.22 1308.95C2705.31 1332.91 2708.14 1397.16 2708.79 1412.19C2709.45 1427.22 2714.67 1479.93 2712.5 1496.27C2710.32 1512.6 2707.05 1530.9 2710.32 1543.32C2713.8 1555.73 2735.37 1563.14 2736.46 1557.47C2737.55 1551.81 2723.39 1536.78 2734.72 1519.36C2734.72 1519.36 2738.85 1533.3 2741.47 1528.94C2744.08 1524.58 2731.88 1506.07 2732.1 1493.22C2732.32 1480.37 2733.41 1406.09 2735.8 1392.59C2738.2 1379.08 2735.15 1312 2738.42 1303.94C2741.69 1296.1 2750.84 1236.2 2750.84 1236.2L2760.42 1214.63L2715.11 1216.59Z" fill="#87676A"/>
<path d="M2817.93 1057.59C2817.93 1057.59 2814.44 1039.29 2808.35 1027.96C2802.25 1016.64 2790.05 987.449 2815.97 966.104C2841.89 944.976 2898.53 958.48 2902.67 969.806C2906.81 981.133 2899.4 991.806 2899.4 991.806L2852.13 1058.02C2852.13 1058.02 2841.46 1074.58 2838.19 1074.14C2834.92 1073.7 2817.93 1057.59 2817.93 1057.59Z" fill="#13213A"/>
<path d="M2926.85 1221.38C2926.85 1221.38 2938.39 1322.45 2944.05 1359.26C2949.72 1396.07 2944.05 1493 2944.05 1493C2944.05 1493 2934.91 1529.81 2910.73 1538.96C2886.55 1548.11 2861.28 1221.38 2861.28 1221.38H2926.85Z" fill="#87676A"/>
<path d="M2781.77 1999.64C2781.77 1999.64 2770.44 1780.95 2764.78 1684.68C2759.11 1588.4 2755.41 1482.98 2755.41 1482.98L2936.43 1454.66L2874.13 1999.64H2845.81C2845.81 1999.64 2851.48 1656.36 2845.81 1594.07L2808.13 1999.64H2781.77Z" fill="#142550"/>
<path d="M2755.41 1482.98C2755.41 1482.98 2743.65 1267.12 2744.95 1235.98C2744.95 1235.98 2713.8 1226.17 2704 1214.85C2704 1214.85 2710.97 1179.56 2716.63 1168.24C2722.3 1156.91 2795.93 1107.46 2795.93 1107.46C2795.93 1107.46 2808.56 1115.96 2863.89 1114.43C2863.89 1114.43 2899.18 1117.27 2914.87 1151.25C2930.55 1185.22 2934.69 1229.44 2934.69 1229.44C2934.69 1229.44 2916.17 1237.5 2895.04 1237.5C2895.04 1237.5 2913.34 1374.72 2923.36 1394.55C2933.38 1414.37 2936.65 1454.88 2936.65 1454.88C2936.65 1454.88 2830.78 1500.84 2755.41 1482.98Z" fill="#F7E4CF"/>
<path d="M2795.93 1107.25C2795.93 1107.25 2810.74 1085.25 2812.92 1070.44L2817.93 1057.8H2840.58C2840.58 1057.8 2844.07 1016.85 2855.39 1000.52C2866.72 984.18 2899.18 992.022 2899.18 992.022C2899.18 992.022 2896.5 1027.5 2901 1053.5C2885.02 1049.5 2886.44 1085.74 2885.02 1087.42C2881.54 1091.56 2858.23 1093.09 2858.23 1093.09C2858.23 1093.09 2852 1105 2850 1111.5C2848.64 1122 2848.64 1148.2 2848.64 1148.2L2795.93 1107.25Z" fill="#87676A"/>
<path d="M2847.55 1999.64V2031.44C2847.55 2031.44 2910.94 2032.09 2914.43 2031.44C2917.92 2030.78 2916.83 2020.76 2910.51 2020.11C2904.19 2019.46 2873.04 2010.31 2872.61 1999.64H2847.55Z" fill="#182A54"/>
<path d="M2784.6 1999.64V2024.47C2788.74 2024.47 2792.66 2024.47 2796.8 2024.47C2801.37 2024.47 2811.39 2026.43 2814.88 2023.16C2819.02 2019.46 2815.31 2013.58 2812.92 2010.31C2812.48 2009.66 2805.73 1999.64 2808.12 1999.64H2784.6Z" fill="#182A54"/>
<path d="M2864.76 1019.47C2864.76 1019.47 2852.13 995.943 2836.45 1008.58C2820.98 1021.43 2855.83 1039.72 2855.83 1039.72L2864.76 1019.47Z" fill="#87676A"/>
<path d="M3322.82 1094.65C3322.82 1094.65 3334.67 1162.62 3333.72 1186.55C3332.53 1210.47 3329.69 1274.42 3328.98 1289.1C3328.27 1303.79 3323.06 1356.37 3325.19 1372.71C3327.32 1389.05 3330.64 1407.06 3327.32 1419.37C3324.01 1431.69 3302.45 1439.27 3301.27 1433.58C3300.08 1427.9 3314.06 1412.98 3302.92 1395.69C3302.92 1395.69 3298.66 1409.66 3296.06 1405.16C3293.45 1400.9 3305.53 1382.42 3305.29 1369.63C3305.06 1356.84 3304.11 1282.95 3301.5 1269.44C3299.13 1255.94 3301.98 1189.15 3298.9 1181.34C3295.82 1173.52 3286.58 1113.83 3286.58 1113.83L3277.11 1092.52L3322.82 1094.65Z" fill="#FAD9D4"/>
<path d="M3291.8 1249.07C3291.8 1249.07 3298.19 1462.24 3281.14 1587.54C3264.32 1712.83 3245.84 1919.6 3245.84 1919.6H3217.65L3203.91 1418.66L3183.78 1919.6H3148.49C3148.49 1919.6 3097.79 1362.53 3126.69 1249.07H3291.8Z" fill="#4A8D93"/>
<path d="M3263.13 1214.02H3175.96V1301.89H3263.13V1214.02Z" fill="#F7E4CF"/>
<path d="M3200.36 1228.94L3222.86 1326.53H3310.03L3287.53 1020.51L3225.71 992.33L3226.18 967.46L3193.97 960.828L3187.57 981.908L3116.51 994.461V1326.53H3190.89L3200.36 1228.94Z" fill="#142245"/>
<path d="M3243.71 1000.62H3182.59L3170.28 984.984L3203.44 1138.46L3243.71 1000.62Z" fill="#719EBA"/>
<path d="M3220.73 842.639C3220.73 842.639 3179.28 837.665 3177.15 872.956C3175.02 908.247 3172.17 969.355 3211.73 972.197C3251.05 975.039 3251.05 901.852 3248.92 892.615C3246.79 883.378 3250.34 853.771 3220.73 842.639Z" fill="#FAD9D4"/>
<path d="M3116.51 994.457C3116.51 994.457 3058 1018.38 3049 1024.77L3056.1 1069.3H3136.4L3116.51 994.457Z" fill="#142245"/>
<path d="M2958.75 931.456C2958.75 931.456 3043.07 986.169 3066.53 1023.12C3089.98 1060.07 3067.71 1068.36 3045.68 1059.83C3023.65 1051.3 2956.14 949.694 2947.85 944.957C2939.8 940.22 2891.47 934.535 2888.87 930.982C2886.26 927.193 2882 908.008 2882 908.008C2882 908.008 2887.92 904.929 2894.79 916.061C2901.66 927.193 2930.32 921.508 2930.32 921.508C2930.32 921.508 2947.61 918.666 2958.75 931.456Z" fill="#FAD9D4"/>
<path d="M3188.86 878.201C3188.86 888.806 3181.35 908.689 3177.59 917.305C3159.04 894.77 3170.97 851.691 3173.62 841.749C3176.27 831.808 3218.02 827.168 3239.23 831.808C3260.44 836.447 3258.45 878.201 3259.78 889.468C3261.1 900.735 3247.85 923.269 3248.51 917.305C3249.04 912.533 3236.36 886.155 3229.95 873.562C3216.25 870.69 3188.86 867.597 3188.86 878.201Z" fill="black"/>
<path d="M3243.23 1919.61C3243.23 1919.61 3291.56 1941.63 3289.19 1944.95C3286.82 1948.26 3235.65 1946.37 3229.73 1944.95C3223.81 1943.53 3220.73 1919.61 3220.73 1919.61H3243.23Z" fill="#142245"/>
<path d="M3175.73 1919.6C3175.73 1919.6 3179.52 1943.05 3175.73 1944.95C3171.94 1946.84 3140.91 1960.82 3134.51 1957.5C3127.88 1954.18 3152.28 1926.47 3152.28 1926.47L3153.22 1919.37H3175.73V1919.6Z" fill="#142245"/>
<path d="M3187.57 981.905L3204.15 1024.3L3225.7 992.327V951.352H3192.78L3187.57 981.905Z" fill="#FAD9D4"/>
<path d="M3189.23 971.957L3170.28 984.984L3179.75 1024.3H3204.15L3189.23 971.957Z" fill="#A2BED3"/>
<path d="M3243.71 1000.62L3225.7 984.984L3204.15 1024.3H3226.89L3243.71 1000.62Z" fill="#A2BED3"/>
<path d="M3249.63 1003.22L3318.56 1031.88L3333.48 1162.39L3342.01 1238.42L3328.27 1369.63L3299.85 1364.19L3278.05 1234.63L3249.63 1003.22Z" fill="#142245"/>
<path d="M3116.5 994.459L3067 1010.56L2978.64 936.43L2944.3 951.351L3055.86 1083.75L3136.4 1079.96L3116.5 994.459Z" fill="#142245"/>
<path d="M1965.05 1971.35C2194.25 1971.35 2379.97 1785.55 2379.97 1556.43H1550.13C1550.13 1785.63 1735.85 1971.35 1965.05 1971.35Z" fill="#101C39"/>
<path d="M1923.04 1669.26H1714.68C1711.55 1669.26 1709 1666.71 1709 1663.58C1709 1660.45 1711.55 1657.89 1714.68 1657.89H1923.04C1926.17 1657.89 1928.73 1660.45 1928.73 1663.58C1928.81 1666.71 1926.26 1669.26 1923.04 1669.26Z" fill="#2C4956"/>
<path d="M2215.33 1760.02H2007.05C2003.92 1760.02 2001.37 1757.46 2001.37 1754.34C2001.37 1751.21 2003.92 1748.65 2007.05 1748.65H2215.42C2218.55 1748.65 2221.1 1751.21 2221.1 1754.34C2221.1 1757.46 2218.55 1760.02 2215.33 1760.02Z" fill="#2C4956"/>
<path d="M1979.38 1869.97H1771.01C1767.88 1869.97 1765.33 1867.41 1765.33 1864.28C1765.33 1861.15 1767.88 1858.6 1771.01 1858.6H1979.38C1982.51 1858.6 1985.06 1861.15 1985.06 1864.28C1985.06 1867.41 1982.51 1869.97 1979.38 1869.97Z" fill="#2C4956"/>
<path d="M2381.21 1538.15H1548.81V1574.72H2381.21V1538.15Z" fill="#2C4956"/>
<path d="M1089.06 1626.77L1077.59 1634.9L1092.89 1482.51L1103.49 1483.74L1089.06 1626.77Z" fill="#707070"/>
<path d="M1067.75 1640H941.173C933.308 1640 927 1633.69 927 1626H1082C1081.92 1633.77 1075.61 1640 1067.75 1640Z" fill="#707070"/>
<path d="M1882.07 1512.63L1784.81 1488.25V1538.25H1905.63C1903.65 1525.73 1894.34 1515.68 1882.07 1512.63Z" fill="#E6A29B"/>
<path d="M1773.44 1483.64L1705.5 1373.94C1697.59 1361.09 1680.71 1357.14 1667.94 1365.13C1655.09 1373.04 1651.14 1389.92 1659.13 1402.69L1735.06 1525.4C1740.01 1533.47 1748.82 1538.33 1758.29 1538.33H1789.01V1483.64H1773.44Z" fill="#984298"/>
<path d="M1743.18 1642.49H1537.28V1433.22C1537.28 1376.39 1583.4 1330.27 1640.23 1330.27C1697.06 1330.27 1743.18 1376.39 1743.18 1433.22V1642.49Z" fill="#A8509D"/>
<path d="M1667.65 1362.89H1663.54V1642.49H1667.65V1362.89Z" fill="#984298"/>
<path d="M1695.33 1325.5C1687.67 1320.14 1665.51 1319.24 1665.51 1319.24C1665.51 1319.24 1643.36 1320.06 1635.7 1325.5C1610.58 1343.12 1618.65 1395.01 1645.33 1417.33C1648.46 1400.86 1653.57 1389.57 1665.51 1386.44C1677.45 1389.49 1682.56 1400.86 1685.69 1417.33C1712.37 1395.01 1720.44 1343.2 1695.33 1325.5Z" fill="#B66AAA"/>
<path d="M1679.27 1383.64C1675.07 1385.53 1670.37 1386.52 1665.51 1386.52C1646.74 1386.52 1631.58 1371.37 1631.58 1352.59V1321.62L1699.45 1339.17V1352.59C1699.45 1366.43 1691.21 1378.37 1679.27 1383.64Z" fill="#E6A29B"/>
<path d="M1631.83 1275.43H1619.14C1613.79 1275.43 1609.43 1279.79 1609.43 1285.14V1287.78C1609.43 1300.13 1619.47 1310.18 1631.83 1310.18V1275.43Z" fill="#E6A29B"/>
<path d="M1679.93 1358.28C1697.25 1358.28 1701.5 1358.28 1719.5 1358.28C1724 1344.5 1728 1343 1734.03 1304.17V1249.32C1734.03 1237.21 1724.23 1227.41 1712.13 1227.41H1647.72C1635.62 1227.41 1625.82 1237.21 1625.82 1249.32V1304.17C1625.82 1316.74 1630.1 1328.32 1637.29 1337.5C1647.19 1350.15 1662.61 1358.28 1679.93 1358.28Z" fill="#E6A29B"/>
<path d="M1691.62 1339.99C1679.43 1339.99 1669.63 1330.11 1669.63 1318V1317.34H1713.61V1318C1713.61 1330.11 1703.73 1339.99 1691.62 1339.99Z" fill="#D12026"/>
<path d="M1733.05 1215.96C1733.13 1215.3 1733.13 1214.73 1733.13 1214.07C1733.13 1204.84 1725.63 1197.35 1716.41 1197.35C1712.21 1197.35 1708.42 1198.91 1705.46 1201.38C1704.63 1193.89 1698.37 1188.12 1690.63 1188.12C1683.88 1188.12 1678.19 1192.65 1676.38 1198.83C1673.83 1196.69 1670.62 1195.45 1666.99 1195.45C1660.9 1195.45 1655.71 1199.16 1653.49 1204.43C1650.36 1201.63 1646.16 1199.98 1641.63 1199.98C1631.74 1199.98 1623.67 1207.97 1623.67 1217.94C1623.67 1220.33 1624.17 1222.55 1624.99 1224.61C1618.32 1227.9 1613.63 1234.74 1613.63 1242.73C1613.63 1244.21 1613.79 1245.69 1614.12 1247.09C1610.08 1250.22 1607.45 1255.08 1607.45 1260.6C1607.45 1269.17 1613.71 1276.25 1621.94 1277.48V1288.11C1621.94 1291.9 1624.99 1294.94 1628.78 1294.94C1632.57 1294.94 1635.62 1291.9 1635.62 1288.11V1273.61C1639.16 1270.65 1641.38 1266.2 1641.63 1261.26C1647.48 1258.79 1651.92 1253.6 1653.41 1247.26C1656.12 1251.87 1661.23 1255 1666.99 1255C1674.24 1255 1680.34 1250.14 1682.23 1243.47C1684.62 1246.02 1688 1247.59 1691.78 1247.59C1696.89 1247.59 1701.26 1244.7 1703.48 1240.5C1706.2 1243.55 1710.07 1245.53 1714.51 1245.53C1717.15 1245.53 1719.62 1244.87 1721.68 1243.63C1724.48 1246.11 1728.1 1247.59 1732.14 1247.59C1740.87 1247.59 1747.95 1240.5 1747.95 1231.77C1748.12 1223.29 1741.45 1216.37 1733.05 1215.96Z" fill="#060606"/>
<path d="M1686.1 1518.79C1691.78 1522.09 1695.9 1517.64 1699.61 1514.43C1703.97 1510.8 1709.33 1519.2 1703.31 1524.56C1697.38 1529.91 1689.4 1529.09 1689.4 1529.09" fill="#E6A29B"/>
<path d="M1705.13 1525.79L1606.96 1483.3L1594.44 1527.52L1675.56 1540.87C1677.62 1541.19 1679.68 1541.94 1681.49 1543.01L1699.11 1553.38C1703.48 1554.45 1708.09 1552.89 1710.89 1549.43C1717.32 1541.61 1714.43 1529.83 1705.13 1525.79Z" fill="#E6A29B"/>
<path d="M1592.38 1474.65L1597.32 1388.09C1598.14 1373.02 1586.7 1360.17 1571.62 1359.26C1556.55 1358.44 1543.7 1369.89 1542.8 1384.96L1536.7 1492.11C1536.05 1504.3 1543.54 1515.5 1555.07 1519.45L1596.5 1533.7L1612.89 1481.57L1592.38 1474.65Z" fill="#B66AAA"/>
<path d="M1551.28 1768.75H1729.26C1737 1768.75 1743.18 1762.49 1743.18 1754.83C1743.18 1747.09 1736.92 1740.91 1729.26 1740.91H1551.28C1543.54 1740.91 1537.36 1747.17 1537.36 1754.83C1537.36 1762.49 1543.54 1768.75 1551.28 1768.75Z" fill="#2C4956"/>
<path d="M1568 2055.68C1567.51 2055.68 1567.01 2055.68 1566.6 2055.6C1560.43 2054.77 1555.98 2049.17 1556.8 2042.92L1593.62 1753.34C1594.44 1747.17 1600.04 1742.72 1606.3 1743.54C1612.48 1744.37 1616.92 1749.97 1616.1 1756.23L1579.2 2045.8C1578.46 2051.48 1573.6 2055.68 1568 2055.68Z" fill="#2C4956"/>
<path d="M1712.54 2055.68C1706.94 2055.68 1702.08 2051.48 1701.34 2045.8L1664.52 1756.23C1663.7 1750.05 1668.15 1744.37 1674.32 1743.54C1680.5 1742.72 1686.18 1747.17 1687.01 1753.34L1723.82 2042.92C1724.65 2049.09 1720.2 2054.77 1714.02 2055.6C1713.53 2055.68 1713.03 2055.68 1712.54 2055.68Z" fill="#2C4956"/>
<path d="M1701.26 1966.57H1579.28C1573.02 1966.57 1568 1961.55 1568 1955.29C1568 1949.03 1573.02 1944 1579.28 1944H1701.26C1707.51 1944 1712.54 1949.03 1712.54 1955.29C1712.54 1961.46 1707.51 1966.57 1701.26 1966.57Z" fill="#2C4956"/>
<path d="M1770.03 1981.89C1769.04 1988.48 1767.14 1998.44 1764.92 2003.3C1762.61 2008.25 1768.71 2010.88 1773.9 2011.62C1779 2012.36 1782.54 2006.52 1785.34 2006.27C1788.23 2006.02 1831.79 2027.68 1848.1 2028.42C1864.41 2029.16 1860.54 2013.52 1846.04 2004.7C1831.63 1995.89 1815.98 1983.46 1812.52 1976.21C1809.06 1968.88 1770.03 1981.89 1770.03 1981.89Z" fill="#0C131F"/>
<path d="M1819.11 1695.61V1984.03H1766.24L1740.21 1740.83H1650.61C1613.46 1740.83 1583.4 1710.77 1583.4 1673.62V1642.57H1766.07C1795.31 1642.49 1819.11 1666.29 1819.11 1695.61Z" fill="#253C81"/>
<path d="M1722.83 1981.89C1721.85 1988.48 1719.95 1998.44 1717.73 2003.3C1715.42 2008.25 1721.52 2010.88 1726.71 2011.62C1731.89 2012.36 1735.35 2006.52 1738.15 2006.27C1741.04 2006.02 1784.6 2027.68 1800.91 2028.42C1817.22 2029.16 1813.35 2013.52 1798.85 2004.7C1784.44 1995.89 1768.79 1983.46 1765.33 1976.21C1761.87 1968.88 1722.83 1981.89 1722.83 1981.89Z" fill="#111E37"/>
<path d="M1773.07 1695.61V1984.03H1720.2L1694.17 1740.75H1604.57C1567.42 1740.75 1537.36 1710.68 1537.36 1673.54V1642.49H1720.03C1749.27 1642.49 1773.07 1666.29 1773.07 1695.61Z" fill="#2A4695"/>
<path d="M2043.49 1497.2C2027.61 1497.24 2030.28 1499.45 2024.88 1495.56C2019.48 1491.67 2016.34 1487.03 2016.65 1483.52C2016.95 1480.01 2010.33 1478.95 2008.24 1488.87C2006.14 1498.78 2014.7 1501.35 2010.6 1503.95C2008.38 1505.36 1998.43 1503.68 1987.35 1510.82C1976.9 1517.56 1984.92 1536.17 2001.57 1538.57C2018.22 1540.97 2032.22 1526.61 2040.63 1526.34C2049.16 1526.09 2043.49 1497.2 2043.49 1497.2Z" fill="#E9B2A9"/>
<path d="M2213.15 1534.78C2208.77 1537.57 2203.57 1539.2 2198.01 1539.2L2037.99 1539.22L2039.89 1497.68L2175.6 1486.44L2204 1390.56L2248.47 1390.56L2225.86 1515C2224.79 1523.3 2219.97 1530.45 2213.15 1534.78Z" fill="#2E59A7"/>
<path d="M2400.56 1642.49H2194.66V1433.22C2194.66 1376.39 2240.78 1330.27 2297.61 1330.27C2354.44 1330.27 2400.56 1376.39 2400.56 1433.22V1642.49Z" fill="#2D73B9"/>
<path d="M2276.5 1387.36C2260.73 1387.36 2248 1372.2 2248 1353.42V1340H2305V1353.42C2305 1372.2 2292.27 1387.36 2276.5 1387.36Z" fill="#E9B2A9"/>
<path d="M2327.26 1275.43H2339.94C2345.3 1275.43 2349.66 1279.79 2349.66 1285.14V1287.78C2349.66 1300.13 2339.62 1310.18 2327.26 1310.18V1275.43Z" fill="#E9B2A9"/>
<path d="M2285 1355C2268.52 1355 2256.5 1355 2239.5 1355C2237.05 1344.3 2225.05 1317.58 2225.05 1304.17V1249.32C2225.05 1237.21 2234.86 1227.41 2246.96 1227.41H2311.37C2323.47 1227.41 2333.27 1237.21 2333.27 1249.32V1304.17C2325.5 1316 2322 1325 2313 1339C2303.08 1350.62 2301.48 1355 2285 1355Z" fill="#E9B2A9"/>
<path d="M2269.61 1339.99C2257.42 1339.99 2247.62 1330.11 2247.62 1318V1317.34H2291.6V1318C2291.6 1330.11 2281.8 1339.99 2269.61 1339.99Z" fill="#D12026"/>
<path d="M2250.58 1446.9C2228.68 1442.37 2185.11 1441.05 2180 1444.18C2174.9 1447.31 2181.32 1452.74 2191.7 1454.97C2202.08 1457.19 2193.35 1475.64 2214.92 1477.78C2236.5 1480 2239.8 1475.56 2252.73 1477.78C2265.57 1479.92 2250.58 1446.9 2250.58 1446.9Z" fill="#E9B2A9"/>
<path d="M2404.02 1525.79C2401.46 1525.79 2398.91 1525.46 2396.44 1524.72L2238.56 1479.18L2247.54 1444.42L2359.71 1457.27L2337.06 1395.92C2331.87 1381.75 2339.12 1366.1 2353.2 1360.83C2367.37 1355.64 2383.01 1362.89 2388.29 1376.97L2429.55 1488.98C2433.09 1498.62 2430.95 1509.49 2423.95 1516.98C2418.84 1522.75 2411.51 1525.79 2404.02 1525.79Z" fill="#4192CF"/>
<path d="M2386.64 1768.75H2208.66C2200.92 1768.75 2194.75 1762.49 2194.75 1754.83C2194.75 1747.09 2201.01 1740.91 2208.66 1740.91H2386.64C2394.38 1740.91 2400.56 1747.17 2400.56 1754.83C2400.56 1762.49 2394.3 1768.75 2386.64 1768.75Z" fill="#2C4956"/>
<path d="M2369.92 2055.68C2370.41 2055.68 2370.91 2055.68 2371.32 2055.6C2377.5 2054.78 2381.94 2049.18 2381.12 2042.92L2344.3 1753.35C2343.48 1747.17 2337.88 1742.72 2331.62 1743.55C2325.44 1744.37 2321 1749.97 2321.82 1756.23L2358.72 2045.8C2359.46 2051.48 2364.32 2055.68 2369.92 2055.68Z" fill="#2C4956"/>
<path d="M2225.38 2055.68C2230.98 2055.68 2235.84 2051.48 2236.58 2045.8L2273.4 1756.23C2274.22 1750.05 2269.77 1744.37 2263.6 1743.55C2257.42 1742.72 2251.74 1747.17 2250.91 1753.35L2214.1 2042.92C2213.27 2049.1 2217.72 2054.78 2223.9 2055.6C2224.39 2055.68 2224.89 2055.68 2225.38 2055.68Z" fill="#2C4956"/>
<path d="M2236.67 1966.57H2358.64C2364.9 1966.57 2369.92 1961.55 2369.92 1955.29C2369.92 1949.03 2364.9 1944.01 2358.64 1944.01H2236.67C2230.41 1944.01 2225.38 1949.03 2225.38 1955.29C2225.38 1961.47 2230.41 1966.57 2236.67 1966.57Z" fill="#2C4956"/>
<path d="M2167.9 1981.89C2168.89 1988.48 2170.78 1998.45 2173 2003.31C2175.31 2008.25 2169.22 2010.88 2164.03 2011.63C2158.92 2012.37 2155.38 2006.52 2152.58 2006.27C2149.7 2006.03 2106.13 2027.69 2089.82 2028.43C2073.52 2029.17 2077.39 2013.52 2091.88 2004.71C2106.29 1995.9 2121.94 1983.46 2125.4 1976.21C2128.86 1968.88 2167.9 1981.89 2167.9 1981.89Z" fill="#0C131F"/>
<path d="M2118.81 1695.62V1984.03H2171.69L2197.71 1740.75H2287.32C2324.46 1740.75 2354.52 1710.69 2354.52 1673.55V1642.5H2171.93C2142.53 1642.5 2118.81 1666.3 2118.81 1695.62Z" fill="#33246B"/>
<path d="M2215.09 1981.89C2216.08 1988.48 2217.97 1998.45 2220.2 2003.31C2222.5 2008.25 2216.41 2010.88 2211.22 2011.63C2206.03 2012.37 2202.57 2006.52 2199.77 2006.27C2196.89 2006.03 2153.32 2027.69 2137.01 2028.43C2120.71 2029.17 2124.58 2013.52 2139.07 2004.71C2153.49 1995.9 2169.13 1983.46 2172.59 1976.21C2176.05 1968.88 2215.09 1981.89 2215.09 1981.89Z" fill="#111E37"/>
<path d="M2164.85 1695.62V1984.03H2217.73L2243.75 1740.75H2333.36C2370.5 1740.75 2400.56 1710.69 2400.56 1673.55V1642.5H2217.97C2188.57 1642.5 2164.85 1666.3 2164.85 1695.62Z" fill="#472D87"/>
<path d="M2319.7 1247.5H2233.89C2202.59 1247.5 2211.59 1222.5 2220.01 1210H2319.7C2326.77 1210 2328.54 1216.67 2328.54 1220C2335.6 1220 2337.79 1224.58 2338 1226.88V1273.75L2319.7 1290V1247.5Z" fill="#060606" stroke="black"/>
<path d="M1202.6 1640H1154.6L1148 1577.2H1209.2L1202.6 1640Z" fill="#0E0D0D"/>
<path d="M1202.6 1559H1154.6L1148 1572.9H1209.2L1202.6 1559Z" fill="#0E0D0D"/>
<path d="M1216.2 1568.2H1141V1579.7H1216.2V1568.2Z" fill="#A3876E"/>
<path d="M1149.8 1594.7L1152.4 1619.5H1204.8L1207.4 1594.7H1149.8Z" fill="#A3876E"/>
<path d="M2385.34 1115.85C2389.21 1124.39 2387.72 1134.4 2381.54 1141.44L2372.5 1151.74C2372.16 1152.13 2371.8 1152.5 2371.44 1152.87L2358.38 1165.93C2355.63 1168.68 2352.3 1170.66 2348.73 1171.8L2329.38 1204.42C2324.94 1211.9 2317.02 1216.12 2308.84 1216.12C2305.19 1216.12 2301.48 1215.28 2298.02 1213.51L2272.4 1200.45C2265.2 1196.78 2260.35 1189.72 2259.51 1181.69C2258.66 1173.66 2261.94 1165.74 2268.21 1160.65L2305.38 1130.52C2307.91 1128.46 2310.82 1126.96 2313.91 1126.09L2310.87 1105.89C2309.19 1094.7 2315.59 1083.87 2326.21 1079.95C2328.92 1078.95 2331.71 1078.47 2334.47 1078.47C2342.51 1078.47 2350.26 1082.56 2354.72 1089.71L2362.28 1101.83H2363.6C2372.98 1101.83 2381.48 1107.32 2385.34 1115.85ZM1359.5 636.577L1355.32 637.538L1359.36 636.434L1359.5 636.577ZM1418.7 671.064C1416.61 672.44 1414.74 674.149 1413.16 676.147L1405.32 672.55C1409.3 672.202 1413.23 670.854 1416.71 668.468L1418.7 671.064ZM2003.32 825.69C2001.22 825.108 1999.07 824.821 1996.94 824.821C1990.91 824.821 1984.97 827.111 1980.43 831.446L1951.86 858.793L1945.91 858.99C1945.78 858.995 1945.64 859.001 1945.51 859.007C1946.45 858.123 1947.32 857.155 1948.11 856.117L1972.22 824.473C1978.56 816.146 1978.74 804.658 1972.66 796.14L1964.75 785.067L1992.16 778.452V805.488C1992.16 813.761 1996.43 821.363 2003.32 825.69V825.69ZM2500.7 410.643C2498.29 401.472 2490.67 394.601 2481.3 393.141L2317.05 367.524C2315.84 367.334 2314.61 367.239 2313.38 367.239H2253.79L2157.87 336.718C2155.52 335.971 2153.08 335.595 2150.64 335.595C2148.47 335.595 2146.31 335.89 2144.2 336.478L2084.21 353.277L2077.48 344.716C2073.72 339.93 2068.28 336.761 2062.26 335.859L1982.15 323.843L1965.42 299.303C1960.91 292.693 1953.48 288.881 1945.7 288.881C1943.94 288.881 1942.16 289.078 1940.38 289.482L1782.16 325.647C1779.75 326.198 1777.44 327.12 1775.32 328.38L1747.35 344.955L1734.14 336.41C1730.19 333.848 1725.68 332.582 1721.18 332.58C1715.86 332.58 1710.55 334.361 1706.2 337.869L1663.32 372.449L1557.61 401.888L1476.75 363.516C1473.52 361.984 1470.03 361.211 1466.52 361.211C1463.83 361.211 1461.14 361.666 1458.55 362.581L1386.23 388.198C1382.35 389.569 1378.9 391.919 1376.2 395.018L1321.95 457.303C1318.17 461.646 1316.08 467.215 1316.08 472.975V504.118C1316.08 512.403 1320.31 519.704 1326.72 523.982L1325.72 524.608C1325.38 524.822 1325.05 525.045 1324.72 525.277L1268.96 564.456C1263.2 568.508 1259.52 574.9 1258.91 581.921C1258.37 588.153 1260.3 594.311 1264.22 599.101L1259.09 599.316C1248.24 599.768 1239.07 607.482 1236.76 618.089L1229.23 652.748C1227.59 660.298 1229.72 667.887 1234.48 673.409L1187.89 738.919C1185.02 742.958 1183.48 747.792 1183.48 752.749V817.155C1183.48 824.142 1186.54 830.779 1191.86 835.314L1250.62 885.428C1254.98 889.141 1260.48 891.135 1266.11 891.135C1267.56 891.135 1269.02 891.003 1270.47 890.732L1329.21 879.804L1343.21 884.47V906.449C1343.21 909.712 1343.88 912.942 1345.17 915.937L1361.94 954.624L1354.1 1000.36C1353.28 1005.12 1353.93 1010.01 1355.95 1014.4L1401.15 1112.34C1405.06 1120.79 1413.51 1126.2 1422.82 1126.2H1472.55C1480.27 1126.2 1487.52 1122.47 1492 1116.17L1540.22 1048.36C1543.09 1044.32 1544.63 1039.49 1544.63 1034.53V1017.67L1565.81 997.609C1571.65 992.079 1574.31 983.981 1572.89 976.068L1564.62 929.982L1612.52 884.594C1615.39 881.883 1617.53 878.506 1618.77 874.764L1635.34 824.648C1637.13 819.261 1636.9 813.516 1634.89 808.403L1668.58 794.366C1675.57 791.451 1680.77 785.385 1682.58 778.026C1684.13 771.692 1683.02 765.048 1679.59 759.609L1689.77 761.365L1712.7 785.387L1739.62 854.802C1743.05 863.65 1751.39 869.625 1760.88 870.018C1761.21 870.031 1761.54 870.039 1761.87 870.039C1770.97 870.039 1779.32 864.849 1783.33 856.615L1807.72 806.465L1837.64 785.686L1866.08 824.898V832.859H1859.31C1850.05 832.859 1841.63 838.214 1837.7 846.6C1833.77 854.985 1835.05 864.886 1840.98 871.999L1901.25 944.329C1902.54 945.871 1904 947.231 1905.6 948.386C1909.21 955.117 1915.88 959.767 1923.57 960.757L1993.89 969.798C1994.91 969.929 1995.93 969.994 1996.94 969.994C2004.83 969.994 2012.3 966.072 2016.77 959.402C2018.91 956.194 2020.21 952.589 2020.64 948.897H2021.05C2023.13 948.897 2025.16 948.629 2027.09 948.127C2029.05 948.637 2031.07 948.898 2033.11 948.898C2036.43 948.898 2039.79 948.205 2042.98 946.758L2054.02 941.736C2061.17 938.49 2066.26 931.942 2067.64 924.223L2073.29 926.857L2074.66 929.887C2076.22 933.312 2078.53 936.245 2081.33 938.527C2076.82 939.1 2072.52 940.955 2068.96 943.949L2062.12 949.71C2060.83 949.495 2059.52 949.388 2058.22 949.388C2053.32 949.388 2048.43 950.888 2044.27 953.886L2019.16 971.968C2015.25 974.779 2012.29 978.704 2010.65 983.229L2008.04 990.476L1968.23 1003.88C1956.36 1007.87 1949.6 1020.36 1952.74 1032.48L1973.84 1113.85C1975.45 1120.08 1979.51 1125.39 1985.09 1128.58C1988.73 1130.66 1992.82 1131.73 1996.94 1131.73C1999.13 1131.73 2001.34 1131.43 2003.49 1130.81L2076.84 1109.85L2093.6 1121.78C2097.49 1124.55 2102.05 1126.04 2106.66 1126.19L2113.35 1140.87C2116.63 1148.07 2123.27 1153.18 2131.08 1154.5L2135.63 1155.27C2136.23 1157.51 2137.17 1159.68 2138.43 1161.7L2150.99 1181.79C2155.35 1188.77 2163 1193.01 2171.23 1193.01C2179.46 1193.01 2187.1 1188.77 2191.47 1181.79L2204.02 1161.7C2207.72 1155.78 2208.6 1148.61 2206.61 1142.08C2210.88 1139.38 2214.2 1135.37 2216.05 1130.63L2234.14 1084.42C2235.79 1080.2 2236.2 1075.61 2235.34 1071.16L2228.31 1035C2227.52 1030.96 2225.71 1027.2 2223.04 1024.07L2196.59 993.064L2189.37 974.011H2193.83C2204.05 974.011 2213.14 967.506 2216.43 957.831C2219.72 948.158 2216.48 937.463 2208.38 931.232L2201.74 926.126L2199.81 918.884C2198.55 914.157 2195.87 909.93 2192.13 906.778L2173.04 890.707C2170.37 888.459 2167.24 886.823 2163.87 885.916L2124.69 875.368C2122.64 874.816 2120.56 874.548 2118.49 874.548C2116.74 874.548 2115.01 874.738 2113.32 875.114C2109.03 871.269 2103.39 869.022 2097.39 869.022H2078.67C2082.09 863.317 2083.11 856.242 2080.96 849.487L2073.92 827.386C2071.84 820.847 2067.05 815.519 2060.76 812.765C2058.85 811.927 2056.86 811.351 2054.83 811.039L2061.4 793.964C2063.78 787.78 2063.48 780.885 2060.57 774.93C2057.67 768.975 2052.41 764.496 2046.08 762.567L2025.08 756.176L2051.49 724.265C2054.13 721.073 2055.83 717.333 2056.56 713.423C2058.24 715.889 2060.38 718.051 2062.92 719.77C2066.93 722.483 2071.59 723.873 2076.3 723.873C2079.29 723.873 2082.3 723.31 2085.16 722.166L2150.46 696.048C2158.06 693.005 2163.58 686.272 2165.06 678.214L2172.03 640.408L2173.6 639.774C2181.82 636.471 2187.53 628.89 2188.44 620.083C2189.35 611.275 2185.3 602.689 2177.94 597.778L2160.06 585.862C2160.64 583.79 2160.94 581.638 2160.94 579.46V534.255C2160.94 530.691 2160.16 527.311 2158.76 524.273L2160.92 522.361L2200.68 517.391C2200.5 519.637 2200.65 521.924 2201.14 524.186L2210.18 566.377C2212.12 575.449 2219.15 582.572 2228.19 584.64C2229.96 585.045 2231.74 585.243 2233.51 585.243C2240.78 585.243 2247.77 581.918 2252.35 576.03L2283.99 535.345C2287.25 531.156 2289.02 526 2289.02 520.692V511.799L2298.79 504.742L2316.77 506.74C2317.65 506.837 2318.53 506.885 2319.4 506.885C2323.67 506.885 2327.87 505.742 2331.57 503.552L2372.25 479.441C2379.94 474.886 2384.43 466.429 2383.91 457.54L2390.67 455.287L2434.73 468.244C2436.94 468.895 2439.21 469.214 2441.46 469.214C2446.77 469.214 2452 467.439 2456.27 464.06L2492.44 435.429C2499.87 429.543 2503.12 419.813 2500.7 410.643V410.643ZM868.55 323.245L876.068 334.523C876.443 335.085 876.841 335.629 877.258 336.152L866.617 329.327C866.212 329.066 865.798 328.819 865.38 328.584L868.55 323.245ZM821.655 456.73C820.251 461.454 820.318 466.58 821.997 471.389L835.259 509.403L830.403 511.963L784.71 488.423L796.235 470.675L821.655 456.73ZM1113.67 897.369L1028.26 874.894L962.565 801.266C958.037 796.192 951.561 793.291 944.759 793.291H886.429C881.413 793.291 876.524 794.872 872.458 797.809L857.377 808.7L843.272 807.994L844.432 799.871C845.911 789.517 840.477 779.407 831.024 774.93L784.847 753.056C783.539 752.437 782.177 751.938 780.779 751.564L762.037 746.567V737.837L773.814 731.497L821.58 739.803C822.943 740.041 824.311 740.157 825.67 740.157C831.943 740.157 838.03 737.681 842.544 733.168L876.569 699.141C879.97 695.741 882.264 691.391 883.15 686.665L888.219 659.627L949.282 630.137C954.986 627.383 959.361 622.474 961.443 616.492C962.334 613.929 962.775 611.258 962.769 608.594L1001.11 615.795C1002.58 616.072 1004.06 616.206 1005.52 616.206C1012.64 616.206 1019.49 613.014 1024.06 607.362C1029.58 600.549 1030.92 591.256 1027.55 583.163L1003.24 524.833C1001.9 521.602 999.858 518.708 997.268 516.354L947.916 471.488V450.876C947.916 449.48 947.795 448.096 947.555 446.735C955.048 444.642 961.093 439.004 963.672 431.586C966.447 423.598 964.789 414.739 959.313 408.296L925.157 368.114C923.63 366.316 921.845 364.755 919.86 363.483L890.194 344.45C892.047 344.91 893.97 345.149 895.924 345.149H943.37L976.753 383.248L978.552 457.481C978.748 465.579 983.04 473.025 989.948 477.255L1039.17 507.392C1042.96 509.708 1047.27 510.903 1051.63 510.903C1053.65 510.903 1055.67 510.649 1057.65 510.132C1063.93 508.496 1069.27 504.376 1072.44 498.718L1096.55 455.765L1186.09 409.823C1190.61 407.505 1194.27 403.806 1196.54 399.264L1224.67 343.007C1228 336.343 1228.03 328.503 1224.74 321.813L1213.37 298.67L1256.68 273C1265.02 268.058 1269.54 258.567 1268.12 248.982C1266.7 239.395 1259.63 231.617 1250.22 229.3L1182.91 212.724C1181.04 212.265 1179.13 212.032 1177.2 212.032H1028.53C1026.28 212.032 1024.05 212.349 1021.89 212.974L968.792 228.346C965.104 223.019 959.307 219.279 952.588 218.307L862.427 205.247C861.293 205.083 860.149 205 859.006 205C857.326 205 855.65 205.179 854.001 205.532L760.326 225.622C757.322 226.266 754.473 227.485 751.93 229.21L723.803 248.296C719.356 251.314 716.13 255.687 714.513 260.648L690.326 259.285C689.876 259.259 689.426 259.248 688.979 259.248C686.202 259.248 683.49 259.73 680.946 260.642C678.374 259.722 675.653 259.246 672.905 259.246C670.268 259.246 667.606 259.684 665.026 260.587L624.843 274.651C622.048 275.63 619.515 277.097 617.331 278.94C615.252 279.419 613.222 280.18 611.295 281.225L576.135 300.311C567.455 305.024 562.605 314.573 563.849 324.304C563.198 325.02 562.585 325.779 562.019 326.578L544.942 350.688C541.86 355.04 540.428 360.1 540.559 365.094L502.292 375.076L473.628 361.701C471.473 360.694 469.177 360.016 466.821 359.688L379.324 347.537C378.231 347.384 377.135 347.309 376.042 347.309C371.554 347.309 367.131 348.576 363.299 350.997L317.12 380.162C311.352 383.805 307.419 389.743 306.315 396.475C305.211 403.208 307.04 410.092 311.342 415.387L331.405 440.08L310.518 469.001C306.418 474.676 305.02 481.866 306.689 488.665C308.359 495.463 312.93 501.186 319.192 504.317L377.522 533.482C380.89 535.167 384.546 536.002 388.194 536.002C392.516 536.002 396.829 534.828 400.638 532.5L435.133 511.42L504.27 533.149L560.858 589.739L547.432 639.607C545.36 647.303 547.268 655.527 552.516 661.525L671.606 797.629C674.714 801.18 678.805 803.73 683.361 804.957L744.233 821.345L767.779 833.12V842.675C767.779 852.946 774.351 862.065 784.097 865.314L814.802 875.548L800.498 920.503C797.924 928.59 799.841 937.435 805.529 943.734L865.999 1010.68L838.533 1191.5C838.089 1194.41 838.191 1197.38 838.83 1200.26L848.551 1244.01C850.032 1250.67 854.292 1256.38 860.258 1259.69L904.006 1284C907.624 1286.01 911.615 1287 915.593 1287C920.555 1287 925.495 1285.46 929.665 1282.41C937.177 1276.93 940.82 1267.58 938.995 1258.46L928.782 1207.39L960.242 1160.2L1028.03 1104.1C1033.5 1099.57 1036.68 1092.83 1036.68 1085.72V1067.74L1087.44 1047.06C1096.42 1043.39 1102.3 1034.66 1102.3 1024.96V980.987L1121.92 966.273C1127.93 961.767 1131.46 954.694 1131.46 947.182V920.448C1131.46 909.607 1124.15 900.128 1113.67 897.369V897.369Z" stroke="#3C6074" stroke-opacity="0.4" stroke-width="2.66667" stroke-miterlimit="10" stroke-dasharray="20 13.33"/>
<path d="M944.759 817.155H886.429L864.555 832.953L815.947 830.522L820.808 796.497L774.629 774.623L738.173 764.901V723.585L769.769 706.571L825.668 716.293L859.695 682.266L866.986 643.381L938.904 608.649L923.55 576.95L1005.52 592.342L981.215 534.012L927.745 485.403L911.656 500.326L881.212 471.218L844.528 463.529L864.555 520.936L830.53 538.872L750.326 497.556L779.491 452.641L830.53 424.644L823.239 397.908L758.976 402.544L725.293 417.352L636.339 420.025L555.892 385.756L499.993 400.339L463.537 383.325L376.042 371.174L329.863 400.339L361.459 439.226L329.863 482.974L388.193 512.138L431.941 485.403L517.005 512.138L587.488 582.62L570.474 645.81L689.565 781.915L752.755 798.926L791.643 818.371V842.675L828.099 854.827H840.25V874.27L823.239 927.739L891.289 1003.08L862.124 1195.08L871.846 1238.83L915.594 1263.14L903.442 1202.38L942.328 1144.05L1012.81 1085.72V1051.69L1078.43 1024.96V969.056L1107.6 947.182V920.448L1015.24 896.144L944.759 817.155Z" fill="#3C6074" fill-opacity="0.25"/>
<path d="M605.602 374.027L638.752 407.68L713.092 390.603L685.968 352.428L653.821 360.466L619.666 340.374H581.493L564.414 364.483L581.493 379.552L605.602 374.027Z" fill="#3C6074" fill-opacity="0.25"/>
<path d="M713.094 351.422L727.158 374.024L749.259 393.613L768.345 388.591L761.313 371.173L773.368 345.394L713.094 351.422Z" fill="#3C6074" fill-opacity="0.25"/>
<path d="M906.975 383.569L853.733 349.414L788.937 348.41L776.883 372.519L788.937 390.601L844.692 387.588L880.857 415.716L849.714 443.843L880.857 450.875L924.052 472.977V450.875L910.994 429.78L941.131 423.752L906.975 383.569Z" fill="#3C6074" fill-opacity="0.25"/>
<path d="M644.78 340.371L699.028 330.827L677.931 317.266H646.79L622.679 302.197L587.52 321.285L623.685 327.311L644.78 340.371Z" fill="#3C6074" fill-opacity="0.25"/>
<path d="M660.854 308.227L672.909 283.112L632.727 297.176L649.804 308.227H660.854Z" fill="#3C6074" fill-opacity="0.25"/>
<path d="M699.027 317.266L718.729 334.343L830.626 340.371L849.713 308.225L873.823 278.088L949.167 241.923L859.005 228.864L765.329 248.954L737.202 268.043L786.425 295.667L699.027 317.266Z" fill="#3C6074" fill-opacity="0.25"/>
<path d="M724.144 301.695L715.718 284.618L688.984 283.11L699.03 300.189L724.144 301.695Z" fill="#3C6074" fill-opacity="0.25"/>
<path d="M760.307 295.668L733.184 283.111L738.206 295.668H760.307Z" fill="#3C6074" fill-opacity="0.25"/>
<path d="M1244.51 252.472L1177.21 235.896H1028.53L914.009 269.048L912 284.618L878.848 295.669L895.926 321.285H954.191L1000.4 374.026L1002.41 456.902L1051.63 487.039L1079.26 437.816L1175.2 388.592L1203.32 332.335L1182.23 289.39L1244.51 252.472Z" fill="#3C6074" fill-opacity="0.25"/>
<path d="M1596.11 663.844L1599.12 636.72L1582.55 612.611L1618.71 590.007L1630.77 663.844H1596.11ZM2313.37 391.102H2250.09L2150.63 359.458L2075.29 380.554L2058.71 359.458L1968.3 345.897L1945.7 312.745L1787.48 348.911L1746.79 373.02L1721.18 356.445L1674.47 394.115L1555.42 427.267L1466.52 385.074L1394.19 410.691L1339.94 472.975V504.117H1376.11L1379.12 519.185L1338.44 544.802L1282.68 583.98L1302.27 603.57L1296.24 621.652L1260.08 623.159L1252.55 657.816L1276.66 666.857L1306.79 659.324L1333.92 618.637L1367.07 609.596L1403.23 648.774L1413.78 641.241L1386.66 606.583L1397.2 603.57L1440.9 660.83L1448.44 653.296L1449.94 638.227L1460.49 635.213L1471.04 642.748L1481.59 638.227L1477.07 620.146L1484.6 600.556L1555.42 617.131L1547.89 635.213L1492.14 641.241L1466.52 660.83L1483.09 669.872L1520.77 663.844L1511.73 698.502L1493.64 707.542L1431.86 690.968L1424.33 707.542L1368.57 681.926L1367.07 659.324L1255.56 684.939L1207.34 752.748V817.154L1266.11 867.27L1330.9 855.215L1367.07 867.27V906.448L1386.66 951.653L1377.62 1004.39L1422.82 1102.34H1472.55L1520.77 1034.53V1007.41L1549.4 980.283L1538.85 921.516L1596.11 867.27L1612.69 817.154L1561.45 829.598L1507.21 736.172L1516.25 719.598L1568.99 810.009L1659.4 772.337L1636.79 745.214H1611.18L1590.08 709.05L1600.63 707.542L1614.19 724.118L1701.59 739.187L1733.23 772.337L1761.86 846.174L1788.99 790.42L1843.23 752.748L1889.95 817.154V844.668L1918.58 888.366L1929.13 880.831L1897.48 840.146L1902 817.154L1929.13 841.653L1953.23 810.009L1930.63 778.365L1953.23 763.296L1996.93 752.748L2033.1 709.05L2016.52 675.898L2033.1 645.761L2058.71 675.898L2076.8 674.392L2060.22 645.761L2103.92 623.159L2137.07 579.459V534.254H2111.46L2150.63 499.596L2210.91 492.061L2244.06 472.472H2274.2L2224.47 519.185L2233.51 561.378L2265.15 520.692V499.596L2292.28 480.007L2319.4 483.02L2360.09 458.911L2358.58 440.828L2390.22 430.28L2441.46 445.35L2477.62 416.719L2313.37 391.102Z" fill="#3C6074" fill-opacity="0.25"/>
<path d="M941.137 1041.07C941.137 1049.39 934.39 1056.14 926.068 1056.14C917.746 1056.14 911 1049.39 911 1041.07C911 1032.75 917.746 1026 926.068 1026C934.39 1026 941.137 1032.75 941.137 1041.07Z" stroke="#223742" stroke-opacity="0.3" stroke-width="13.3333" stroke-miterlimit="10"/>
<path d="M1440.14 999.071C1440.14 1007.39 1433.39 1014.14 1425.07 1014.14C1416.75 1014.14 1410 1007.39 1410 999.071C1410 990.749 1416.75 984.002 1425.07 984.002C1433.39 984.002 1440.14 990.749 1440.14 999.071Z" stroke="#223742" stroke-opacity="0.3" stroke-width="13.3333" stroke-miterlimit="10"/>
<path d="M2146.62 605.579L2141.59 626.926L2164.7 617.633L2146.62 605.579Z" fill="#3C6074" fill-opacity="0.25"/>
<path d="M2122.51 663.843L2076.3 683.935V700.008L2141.59 673.888L2148.63 635.715L2133.56 639.734L2122.51 663.843Z" fill="#3C6074" fill-opacity="0.25"/>
<path d="M1873.37 856.722H1859.31L1919.58 929.051L1936.66 910.97L1873.37 856.722Z" fill="#3C6074" fill-opacity="0.25"/>
<path d="M1990.91 935.581L1936.66 925.033L1926.62 937.088L1996.94 946.129L1990.91 935.581Z" fill="#3C6074" fill-opacity="0.25"/>
<path d="M1961.77 882.339L1946.71 882.842L1961.77 909.966L1990.91 915.992L2009.99 882.842L2001.96 869.782L2016.02 856.722L1996.93 848.686L1961.77 882.339Z" fill="#3C6074" fill-opacity="0.25"/>
<path d="M2016.02 805.488L2029.08 811.516L2039.13 785.396L2016.02 778.364V805.488Z" fill="#3C6074" fill-opacity="0.25"/>
<path d="M2036.11 848.686L2045.15 862.75L2058.21 856.724L2051.18 834.622L2021.04 848.686H2036.11Z" fill="#3C6074" fill-opacity="0.25"/>
<path d="M2008.99 903.935L2012.51 925.031H2021.05V908.958L2033.1 925.031L2044.15 920.009L2027.58 903.684L2039.13 897.907V892.885L2021.05 897.907V888.866L2039.63 882.337V871.789L2016.02 882.337L2008.99 903.935Z" fill="#3C6074" fill-opacity="0.25"/>
<path d="M2076.3 901.929L2091.37 908.961L2096.39 920.011H2116.48L2126.53 929.053L2129.54 940.103L2153.15 946.13L2164.7 935.582L2176.75 950.148H2193.83L2180.77 940.103L2176.75 925.034L2157.67 908.961L2118.49 898.413L2105.43 911.723L2097.39 892.888H2076.3V901.929Z" fill="#3C6074" fill-opacity="0.25"/>
<path d="M2175.75 1005.4L2164.7 976.264L2157.67 975.26L2153.15 955.168H2148.63L2135.07 991.333L2107.44 981.288V966.219L2084.33 962.2L2065.25 978.273L2058.22 973.251L2033.1 991.333L2026.57 1009.42L1975.84 1026.49L1996.94 1107.86L2081.32 1083.75L2107.44 1102.34L2119.49 1096.81L2135.07 1130.97L2164.7 1135.99L2193.83 1121.93L2211.92 1075.72L2204.88 1039.55L2175.75 1005.4Z" fill="#3C6074" fill-opacity="0.25"/>
<path d="M2171.23 1169.14L2183.79 1149.05H2158.67L2171.23 1169.14Z" fill="#3C6074" fill-opacity="0.25"/>
<path d="M2283.24 1179.19L2308.86 1192.25L2334.47 1149.05H2320.41L2283.24 1179.19Z" fill="#3C6074" fill-opacity="0.25"/>
<path d="M2334.47 1102.34L2341.5 1149.05L2354.56 1135.99L2363.61 1125.7H2349.04L2334.47 1102.34Z" fill="#3C6074" fill-opacity="0.25"/>
<g opacity="0.25">
<path d="M773.367 590.008C773.367 590.008 1250.36 463.082 1761.5 791" stroke="#223742" stroke-opacity="0.25" stroke-width="6.66667" stroke-miterlimit="10" stroke-dasharray="15.67 15.67"/>
<path d="M1440 506.809C1440 506.809 1676 480 1747 788C1613 993.5 1440 993.5 1440 993.5" stroke="#223742" stroke-width="6.66667" stroke-miterlimit="10" stroke-dasharray="15.67 15.67"/>
</g>
<path d="M773.7 601.868C773.7 610.19 766.952 616.938 758.63 616.938C750.308 616.938 743.562 610.19 743.562 601.868C743.562 593.546 750.308 586.799 758.63 586.799C766.952 586.799 773.7 593.546 773.7 601.868Z" stroke="#223742" stroke-opacity="0.3" stroke-width="13.3333" stroke-miterlimit="10"/>
<path d="M1440.14 509.071C1440.14 517.393 1433.39 524.141 1425.07 524.141C1416.75 524.141 1410 517.393 1410 509.071C1410 500.749 1416.75 494.002 1425.07 494.002C1433.39 494.002 1440.14 500.749 1440.14 509.071Z" stroke="#223742" stroke-opacity="0.3" stroke-width="13.3333" stroke-miterlimit="10"/>
<path d="M2091.36 1045.58C2091.36 1053.91 2084.62 1060.65 2076.29 1060.65C2067.97 1060.65 2061.23 1053.91 2061.23 1045.58C2061.23 1037.26 2067.97 1030.51 2076.29 1030.51C2084.62 1030.51 2091.36 1037.26 2091.36 1045.58Z" stroke="#223742" stroke-opacity="0.3" stroke-width="13.3333" stroke-miterlimit="10"/>
<g opacity="0.25">
<path d="M2076 1026C2076 1026 2052.94 750.652 1755 790" stroke="#223742" stroke-width="6.66667" stroke-miterlimit="10" stroke-dasharray="15.67 15.67"/>
</g>
<path d="M2159.14 670.067C2159.14 678.39 2152.39 685.137 2144.07 685.137C2135.75 685.137 2129 678.39 2129 670.067C2129 661.745 2135.75 654.998 2144.07 654.998C2152.39 654.998 2159.14 661.745 2159.14 670.067Z" stroke="#223742" stroke-opacity="0.3" stroke-width="13.3333" stroke-miterlimit="10"/>
<path d="M1774 742V711H1799.48C1819.86 712.559 1825.53 732.552 1826 742H1774Z" fill="#5C4114"/>
<path d="M1810 731H1774V710.251C1779.41 710.251 1793.81 709.686 1800.02 710.251C1806.08 710.802 1808.57 712.271 1810 712.953V731Z" fill="#FFCF2D"/>
<path d="M1774 742V731H1810V742H1774Z" fill="#E4572E"/>
<circle cx="1766.5" cy="723.5" r="4.5" fill="#262119"/>
<circle cx="1766.5" cy="723.5" r="4.5" stroke="black"/>
<circle cx="1766.5" cy="723.5" r="1.5" fill="#E3E4E8"/>
<circle cx="1766.5" cy="723.5" r="1.5" stroke="white"/>
<circle cx="1766" cy="723" r="1" fill="white"/>
<circle cx="1766" cy="723" r="1" stroke="white"/>
<path d="M1756.12 724.345C1757.22 714.478 1763.77 707.906 1767.53 709.151C1750.79 724.166 1761.8 738.403 1769 743.289L1765.83 744C1761.91 742.212 1755.01 734.212 1756.12 724.345Z" fill="#E2E3E7"/>
<path d="M1750.69 740.172C1753.01 745.788 1767.03 766.967 1773.74 777L1793 743.182H1770.64C1765.65 743.182 1756.88 737.162 1756.88 725.654C1756.88 714.308 1766 708.479 1770.64 708.479H1793C1780.2 695.873 1767.24 698.586 1761.87 701.22C1758.26 702.991 1752.13 707.523 1748.97 716.447C1745.01 727.601 1747.77 733.09 1750.69 740.172Z" fill="#5C4114"/>
<path d="M1202.66 2068.03H1187.35C1154.75 1981.58 1056.95 1726.62 1056.95 1726.62L1084.17 1713.57C1084.17 1713.57 1178.3 1992.01 1202.66 2068.03Z" fill="#2C1A28"/>
<path d="M926.809 1726.53C926.809 1726.53 829.006 1981.49 796.405 2067.94H781.09C805.451 1991.92 899.582 1713.48 899.582 1713.48L926.809 1726.53Z" fill="#2C1A28"/>
<path d="M641.016 1784.64C641.016 1784.64 615.132 2027.01 611.37 2068.03H599.548C599.906 2037.53 614.684 1784.64 614.684 1784.64H641.016Z" fill="#2C1A28"/>
<path d="M574.559 1784.64C574.559 1784.64 548.675 2027.01 544.913 2068.03H533.091C533.449 2037.53 548.227 1784.64 548.227 1784.64H574.559Z" fill="#683639"/>
<path d="M799.004 1784.64C799.004 1784.64 773.12 2027.01 769.359 2068.03H757.536C757.895 2037.53 772.672 1784.64 772.672 1784.64H799.004Z" fill="#683639"/>
<path d="M855.426 1784.64C855.426 1784.64 829.542 2027.01 825.781 2068.03H813.958C814.316 2037.53 829.094 1784.64 829.094 1784.64H855.426Z" fill="#2C1A28"/>
<path d="M590.86 1474.8C606.892 1546.95 619.699 1675.06 619.699 1675.06L623.282 1772.05H809.035V1790.94H534.436C534.436 1790.94 493.058 1545.07 484.28 1499.99C461.711 1384.12 562.021 1345.07 590.86 1474.8Z" fill="#683639"/>
<path d="M549.93 1400.58C566.5 1411.38 581.994 1435.22 590.771 1474.8C606.803 1546.95 619.61 1675.06 619.61 1675.06L619.879 1682.17L598.294 1772.5L548.139 1772.05C548.139 1772.05 509.09 1553.61 499.238 1491.18C491.267 1440.25 514.911 1379.71 549.93 1400.58Z" fill="#2C1A28"/>
<path d="M990.845 1615.06H1021.74C1024.07 1615.06 1025.95 1616.95 1025.95 1619.29C1025.95 1621.63 1024.07 1623.52 1021.74 1623.52H990.845C988.516 1623.52 986.635 1621.63 986.635 1619.29C986.635 1616.86 988.516 1615.06 990.845 1615.06Z" fill="#E6A29B"/>
<path d="M960.93 1615.33L988.784 1602.1C990.844 1601.11 993.352 1602.01 994.337 1604.08C995.322 1606.15 994.427 1608.67 992.367 1609.66L964.423 1622.97C962.363 1623.96 959.856 1623.06 958.87 1620.99C957.975 1618.84 958.781 1616.41 960.93 1615.33Z" fill="#E6A29B"/>
<path d="M891.791 1722.92C901.105 1740.47 826.32 1975.46 806.527 1991.2C776.434 2015.13 822.827 1795.98 830.351 1759.9L703.082 1690.18C703.082 1690.18 871.729 1685.14 891.791 1722.92Z" fill="#265A87"/>
<path d="M803.57 1367.65C800.893 1381 796.999 1390.5 792.499 1393.5C778.999 1386 785.954 1389.08 786.553 1385.02C787.986 1375.39 805.988 1355.6 803.57 1367.65Z" fill="#FECEC6"/>
<path d="M985.204 1609.57C990.846 1607.05 993.533 1607.95 1002.49 1606.06C1008.31 1604.8 1009.92 1604.8 1011.89 1604.17C1015.66 1602.91 1014.4 1606.69 1010.64 1608.22C1004.37 1610.83 997.653 1612.72 1000.97 1612C1008.13 1610.38 1017.72 1612.81 1024.34 1611.19C1031.06 1609.48 1028.91 1614.16 1023.54 1616.23C1018.07 1618.3 1012.7 1617.49 1018.07 1618.3C1023.45 1619.1 1028.1 1616.59 1031.06 1615.78C1034.02 1614.97 1031.87 1620.81 1023.09 1624.59C1014.31 1628.37 1024.79 1626.3 1028.55 1625.4C1032.31 1624.59 1025.24 1632.51 1015.57 1633.41C1005.98 1634.22 996.31 1634.67 977.949 1633.41C959.589 1632.15 953.678 1630.44 953.678 1630.44L956.633 1612.81C964.515 1614.61 977.233 1613.08 985.204 1609.57Z" fill="#FECEC6"/>
<path d="M845.48 1530.55C852.505 1530.91 861.217 1534.08 867.985 1536.91C871.96 1536.46 876.994 1536.28 881.015 1537.68C888.93 1540.47 882.669 1559.56 872.978 1567.28C864.036 1574.37 848.895 1563.23 834.019 1562.51C829.733 1562.87 824.834 1563.77 820.215 1565.95C812.45 1554.76 816.02 1546.49 816.02 1546.49C819.9 1544.81 824.159 1543.17 828.009 1541.88C833.464 1533.89 835.735 1530.04 845.48 1530.55Z" fill="#FECEC6"/>
<path d="M746.595 1542.07C772.457 1545.31 782.776 1545.8 793.701 1544.23C804.626 1542.66 820.511 1538.61 820.511 1538.61L829.232 1570.87L805.677 1576.3C805.677 1576.3 748.353 1600.77 719.826 1604.78C691.299 1608.8 690.954 1523.92 685.352 1515.13L738.686 1500.24C738.55 1500.35 743.699 1536.03 746.595 1542.07Z" fill="#30261D"/>
<path d="M734.696 1237.66C766.311 1232.8 825.423 1236.04 824.617 1309.27C824.348 1331.22 815.75 1357.4 797.838 1377.64C782.061 1395.52 764.999 1396.5 755.999 1410.66C747.765 1409.99 735.811 1396.92 731.999 1392.5C721.073 1398.17 716.425 1410.66 716.425 1410.66L673.077 1374.4C673.077 1374.4 693.318 1344.26 702.274 1332.12C680.421 1299.46 703.17 1242.51 734.696 1237.66Z" fill="#FECEC6"/>
<path d="M780.553 1292.98C787.449 1294.24 796.764 1301.89 798.824 1303.6C799.988 1304.5 812.527 1314.58 823.543 1323.3C821.931 1333.56 818.617 1344.17 813.602 1354.34C808.496 1351.73 786.195 1339.77 779.03 1326.81C776.97 1323.03 775.806 1331.67 777.776 1334.1C779.836 1336.53 757.535 1326 754.669 1314.13C744.907 1327.98 725.92 1326.36 725.92 1326.36C725.92 1326.36 757.535 1297.84 763.178 1295.05C768.731 1292.17 773.656 1291.72 780.553 1292.98Z" fill="#E6A29B"/>
<path d="M772.672 1391.85C771.239 1398.33 763.627 1395 765.507 1390.32C767.747 1384.93 775.27 1388.44 772.672 1391.85Z" fill="#AA522A"/>
<path d="M722.246 1316.01C720.007 1319.7 717.857 1321.59 716.335 1323.66C714.722 1325.73 711.14 1321.59 713.916 1316.01C716.693 1310.44 726.545 1308.73 722.246 1316.01Z" fill="#AA522A"/>
<path d="M714.277 1298.38C720.995 1297.12 726.458 1308.19 723.413 1306.93C720.368 1305.67 713.113 1302.34 709.71 1306.66C707.918 1308.82 707.56 1299.55 714.277 1298.38Z" fill="#D68B55"/>
<path d="M715.709 1358.48C718.217 1380.34 732 1392.5 732 1392.5C726.268 1395.47 723.77 1399.5 720.725 1403.73C716.784 1400.4 712.754 1395.81 709.619 1389.78C703.17 1377.19 714.455 1347.86 715.709 1358.48Z" fill="#E6A29B"/>
<path d="M688.213 1672.55C688.213 1672.55 693.677 1682.62 698.065 1688.29C733.263 1695.31 813.87 1698.28 833.663 1707C860.442 1718.79 939.437 1963.49 920.629 1983.65C909.792 1995.34 828.648 1823.69 801.062 1772.5C787.718 1772.5 586.201 1772.5 586.201 1772.5C537.748 1738.04 549.391 1666.7 549.391 1666.7L688.213 1672.55Z" fill="#2485A5"/>
<path d="M1246.64 1639.8L1283 1740.56C1283 1740.56 1257.92 1719.15 1165.14 1750.63C1072.35 1782.12 987.085 1802.27 895.551 1769.53C804.018 1736.78 730.039 1758.19 730.039 1758.19L756.371 1639.8H1246.64Z" fill="#BBBBC0"/>
<path d="M1246.64 1639.8L1283 1740.56C1283 1740.56 1257.92 1719.15 1165.14 1750.63C1072.35 1782.12 987.085 1802.27 895.551 1769.53C804.018 1736.78 730.039 1758.19 730.039 1758.19L756.371 1639.8H1246.64Z" fill="#D2DECD"/>
<path d="M645.58 1392.03C645.58 1392.03 649.789 1382.77 658.119 1369.36C698.243 1370.17 725.828 1405.44 725.828 1405.44C727.53 1408.77 720.813 1421.36 720.813 1421.36C720.813 1421.36 766.758 1474.26 790.224 1569.99C839.573 1575.83 908.895 1592.66 914.806 1593.47C920.627 1594.28 935.674 1604.35 935.674 1604.35H957.438C957.438 1604.35 964.961 1616.14 957.438 1634.58C953.228 1634.58 790.224 1647.98 764.34 1629.54C738.457 1611.1 710.871 1552.26 710.871 1552.26C676.569 1595.09 688.301 1672.37 688.301 1672.37C688.301 1672.37 567.929 1696.75 543.657 1664C543.657 1656.44 542.851 1565.76 576.258 1480.92C609.665 1396.26 645.58 1392.03 645.58 1392.03Z" fill="#30261D"/>
<path d="M768.552 1387.62L772.762 1391.76C772.762 1391.76 772.762 1391.85 772.672 1391.85C772.135 1394.01 770.97 1395.09 769.717 1395.36L765.328 1391.22C765.418 1390.95 765.418 1390.59 765.597 1390.23C766.224 1388.7 767.388 1387.89 768.552 1387.62Z" fill="#D2DECD"/>
<path d="M852.663 1539.41C845.115 1543.29 839.481 1542.21 839.481 1542.21L842.804 1530.6C842.804 1530.6 856.988 1527.18 860.03 1526.47C863.073 1525.75 860.22 1535.41 852.663 1539.41Z" fill="#FECEC6"/>
<path d="M645.581 1392.03C645.581 1392.03 649.79 1382.77 658.12 1369.36C698.244 1370.17 725.829 1405.44 725.829 1405.44C727.531 1408.77 720.814 1421.36 720.814 1421.36C704.065 1407.96 686.511 1441.52 689.019 1473.45C691.527 1505.39 710.783 1552.35 710.783 1552.35C676.48 1595.18 688.213 1672.46 688.213 1672.46C688.213 1672.46 567.84 1696.84 543.569 1664.09C543.569 1656.53 542.763 1565.85 576.17 1481.01C609.666 1396.26 645.581 1392.03 645.581 1392.03Z" fill="#30261D"/>
<path d="M918.926 1971.68C931.375 1975.82 967.917 1996.24 981.71 2005.5C995.502 2014.77 927.345 2013.96 915.164 2012.43C902.894 2010.9 909.791 1968.62 918.926 1971.68Z" fill="#C3594C"/>
<path d="M804.198 1986.97C812.349 1994.44 833.396 2022.51 840.919 2034.29C848.353 2046.08 796.406 2022.24 787.54 2016.84C778.583 2011.53 798.198 1981.48 804.198 1986.97Z" fill="#B33D43"/>
<path d="M1246.64 1639.8L1258.91 1673.8L1258.28 1674.16L1243.23 1659.05H766.759L746.965 1682.08L756.369 1639.8H1246.64Z" fill="#2C1A28"/>
<path d="M723.411 1237.66C802.764 1166.4 818.169 1272.65 891.968 1268.6C901.014 1268.06 884.714 1287.32 864.383 1286.51C891.162 1306.03 902.178 1298.2 896.805 1306.84C884.624 1326.36 865.189 1341.84 831.961 1343.46C798.733 1345.07 776.88 1310.08 772.044 1304.41C769.626 1309.27 771.238 1319.07 772.85 1323.12C774.462 1327.17 759.863 1316.65 755.833 1301.17C749.384 1319.88 730.755 1325.55 725.829 1326.36C720.993 1327.17 728.248 1323.12 732.278 1306.84C730.666 1286.51 690.183 1283.27 702.274 1332.03C697.438 1340.13 689.556 1350.11 689.556 1350.11C685.078 1340.13 689.109 1331.94 685.526 1324.47C666.539 1285.88 674.51 1220.56 723.411 1237.66Z" fill="#2A1D24"/>
</g>
<defs>
<clipPath id="clip0">
<rect width="3843" height="2157" fill="white"/>
</clipPath>
</defs>
</svg>
