<svg width="756" height="1056" viewBox="0 0 756 1056" fill="none" xmlns="http://www.w3.org/2000/svg">
<path d="M581.995 201.798C516.077 154.298 446.847 215.208 420.471 251.601C422.975 262.183 429.705 285.966 436.587 296.435C443.47 306.904 462.559 297.081 471.243 290.861C495.356 318.973 513.048 297.404 516.562 296.435C520.076 295.466 516.562 306.977 516.562 310.491C516.562 313.302 533.687 315.055 542.25 315.58C542.573 307.866 544.335 295.344 548.794 306.977C554.368 321.518 581.995 336.18 585.509 336.18H611.683C609.825 339.532 605.794 346.94 604.533 349.751C603.273 352.562 618.468 361.99 626.223 366.352L639.795 358.354V377.863L680.024 410.58C682.569 348.176 664.393 261.173 581.995 201.798Z" fill="#A9CB6C"/>
<path d="M609.138 249.178C550.781 180.836 473.828 220.702 442.646 249.178C439.94 250.672 436.151 249.832 442.646 234.516C449.141 219.2 515.391 206 547.703 201.314C557.438 205.354 586.261 222.084 623.679 256.691C661.097 291.298 672.472 367.726 673.481 401.614L662.455 390.951C668.998 372.169 667.495 317.52 609.138 249.178Z" fill="#80AA3C"/>
<path d="M414.17 24.5224C335.843 66.206 347.605 159.994 363.277 201.678H451.855L479.604 172.111V150.664L497.537 156.48L518.985 135.032L513.774 123.521H545.643L583.813 97.4688V74.8093L603.443 88.1384L629.01 77.7175V62.692L656.153 74.8093L712.256 57.4816C676.874 12.8898 512.078 -27.5821 414.17 24.5224Z" fill="#A9CB6C"/>
<path d="M52.1045 265.9L0 284.803C60.829 140.606 148.68 94.0758 245.861 92.8641C323.605 91.8947 381.898 164.76 401.326 201.314L313.596 257.175L272.155 265.9C268.197 257.539 255.021 240.817 233.986 240.817C212.95 240.817 201.794 231.688 198.845 227.124L179.336 240.817H131.715L112.206 233.304V247.724L79.6108 253.419L71.4922 240.817L52.1045 265.9Z" fill="#A9CB6C"/>
<path d="M360.006 182.532C314 121.098 185.613 44.2494 40.1084 228.336C96.9791 162.7 240.577 61.6499 360.006 182.532Z" fill="#80AA3C"/>
<path d="M248.526 449.356C242.322 331.673 309.84 292.477 344.374 287.59C360.975 298.859 392.795 324.596 387.27 337.392C381.744 350.188 367.115 362.192 360.491 366.595L372.729 385.013V421.002H355.886L365.822 437.845V465.472H351.281L365.822 487.647L372.729 532.845L360.491 548.961L381.211 552.838L387.27 582.647L372.729 590.402L394.177 599.611L424.834 654.745C368.65 635.317 254.73 567.04 248.526 449.356Z" fill="#A9CB6C"/>
<path d="M342.799 306.735C303.943 352.781 242.952 464.939 309.84 545.204C365.343 611.808 395.426 634.179 407.844 638.712C410.034 639.239 411.863 639.477 413.322 639.477C412.195 639.82 410.391 639.641 407.844 638.712C390.508 634.535 350.536 612.162 292.27 545.204C226.642 469.785 289.483 341.552 329.107 286.862L342.799 306.735Z" fill="#80AA3C"/>
<path d="M132.806 539.75L114.509 585.796C97.1002 535.954 75.0062 415.426 125.899 332.059C176.792 248.692 291.139 235.404 332.015 243.846C336.862 259.162 347.404 272.887 358.431 276.442C354.165 281.289 364.207 294.739 367.761 301.161L256.281 370.35H243.922V393.373L230.229 404.884L208.782 393.373L203.329 429.361L175.822 461.594H148.195L163.463 479.285L148.195 506.791L132.806 497.582V539.75Z" fill="#A9CB6C"/>
<path d="M114.509 558.896C109.662 328.958 255.555 284.802 329.107 291.467C316.699 289.499 315.619 263.465 304.509 263.112C132.308 257.643 101.57 462.445 114.509 558.896Z" fill="#80AA3C"/>
<path d="M671.542 49.242C570.242 11.9206 441.596 110.273 389.936 164.114L369.7 184.471C442.985 9.40014 601.464 21.3721 671.542 49.242Z" fill="#80AA3C"/>
<circle cx="168.09" cy="999.561" r="45.5612" fill="#925C30"/>
<circle cx="459.126" cy="998.392" r="56.9514" fill="#925C30"/>
<path d="M542.251 591.977C518.598 441.625 442.404 344.501 407.264 314.732L434.891 305.766C463.569 340.34 532.823 437.069 580.42 547.385C628.017 657.701 628.284 923.749 622.467 1042.98C586.923 1044.76 520.052 1045.77 536.919 1035.59C558.003 1022.87 571.817 779.917 542.251 591.977Z" fill="#8E6137"/>
<path d="M323.532 235.243C316.068 261.416 339.729 274.665 352.493 278.017C352.493 281.046 358.552 307.341 368.246 315.46C377.939 323.578 398.66 327.577 432.589 311.34C459.731 298.35 451.815 263.274 444.464 247.36C456.581 234.661 456.217 213.311 454.521 204.223C448.785 195.377 431.595 177.007 408.717 174.293C385.84 171.579 377.374 203.455 376.001 219.733C361.621 213.997 330.997 209.069 323.532 235.243Z" fill="#8C551D"/>
<path d="M382.423 249.784C380 242.804 391.107 235.647 396.964 232.94C402.053 234.637 421.198 245.058 421.198 249.784C421.198 254.509 407.748 262.143 401.932 264.203C396.115 266.263 385.452 258.508 382.423 249.784Z" fill="#A0642E"/>
<path d="M332.476 234.153C330.053 227.173 341.16 220.016 347.017 217.31C352.106 219.006 368.73 221.187 368.73 225.913C368.73 230.639 359.4 239.605 353.583 241.665C347.767 243.725 335.506 242.877 332.476 234.153Z" fill="#A0642E"/>
<path d="M396.94 198.043C394.516 191.063 397.771 183.421 403.628 180.715C408.717 182.411 420.835 177.928 435.715 198.043C438.526 201.842 412.231 210.16 406.415 212.22C400.599 214.28 399.969 206.767 396.94 198.043Z" fill="#A0642E"/>
<path d="M423.864 974.642C420.568 964.464 441.959 956.83 453.067 954.285C466.76 954.285 480.937 966.766 482.633 970.886C484.33 975.006 461.307 991.122 456.823 994.515C452.34 997.908 427.984 987.365 423.864 974.642Z" fill="#926231"/>
<path d="M153.307 1003.92C150.496 995.101 164.738 977.143 172.21 969.267C170.514 968.459 165.546 966.844 159.245 966.844C151.368 966.844 139.978 977.871 135.131 985.747C130.284 993.623 156.821 1014.95 153.307 1003.92Z" fill="#966431"/>
<ellipse rx="44.3494" ry="45.3188" transform="matrix(-1 0 0 1 711.166 1004.21)" fill="#925C30"/>
<path d="M722.852 974.231C724.674 968.136 712.852 963.564 706.713 962.04C699.146 962.04 691.311 969.514 690.374 971.982C689.436 974.449 702.16 984.1 704.637 986.132C707.115 988.164 720.576 981.851 722.852 974.231Z" fill="#926231"/>
</svg>
