<svg width="2313" height="203" viewBox="0 0 2313 203" fill="none" xmlns="http://www.w3.org/2000/svg">
<path d="M72.4949 0C62.8956 18.808 20.1652 37.6763 0 44.7595V203H2276.34C2304 150.253 2342.74 44.7595 2276.34 44.7595C2209.94 44.7595 2053.36 14.9198 1983.36 0C1891.7 14.9198 1673.08 44.7595 1531.89 44.7595C1390.7 44.7595 1225.41 14.9198 1160.42 0C1086.76 14.9198 913.736 44.7595 810.943 44.7595C708.15 44.7595 592.458 14.9198 547.461 0C524.63 14.9198 450.168 44.7595 334.976 44.7595C219.785 44.7595 111.992 14.9198 72.4949 0Z" fill="url(#paint0_linear)"/>
<defs>
<linearGradient id="paint0_linear" x1="1156.5" y1="0" x2="1156.5" y2="203" gradientUnits="userSpaceOnUse">
<stop stop-color="#A5F5FA"/>
<stop offset="1" stop-color="#B9FBFF"/>
</linearGradient>
</defs>
</svg>
