<svg width="2288" height="134" viewBox="0 0 2288 134" fill="none" xmlns="http://www.w3.org/2000/svg">
<path d="M79 0C69.4007 11.7617 -4.83475 30.6138 -25 35.0433V134H2251.34C2279 101.014 2317.73 35.0433 2251.34 35.0433C2216.74 35.0433 2154 52.8947 2099.09 23.8026C2039 31.7368 2006 23.8026 1958.36 7.05263C1927.5 23.8026 1886 39.6711 1820 30.7844C1765.5 57.3026 1698.48 36.2785 1611 23.8026C1536.5 46.2829 1501 24.6842 1441.5 31.7368C1384.89 38.4465 1348.5 34.3739 1310 7.05263C1251 19.8278 1234 39.6711 1135.42 7.05263C1087 26.8959 1032.5 14.1053 996 7.05263C917.5 27.3289 886 46.2829 854 46.2829C819.5 46.2829 766.5 29.9651 737.5 14.1053C688 37.4671 594.5 29.9651 580.5 7.05263C531.5 53.3355 435 26.2629 421 7.05263C399 26.2629 396.671 39.671 336 39.671C292.91 39.671 235.832 10.8098 198 7.05263C137 40.5526 103 13.6645 79 0Z" fill="url(#paint0_linear)"/>
<defs>
<linearGradient id="paint0_linear" x1="1131.5" y1="0" x2="1131.5" y2="134" gradientUnits="userSpaceOnUse">
<stop stop-color="#6CF0F8"/>
<stop offset="1" stop-color="#B9FBFF"/>
</linearGradient>
</defs>
</svg>
